<?xml version="1.0" standalone="no"?>
<!DOCTYPE svg PUBLIC "-//W3C//DTD SVG 1.1//EN" "http://www.w3.org/Graphics/SVG/1.1/DTD/svg11.dtd" >
<svg xmlns="http://www.w3.org/2000/svg" xmlns:xlink="http://www.w3.org/1999/xlink" version="1.1">
<metadata></metadata>
<defs>
<font id="otama.epregular" horiz-adv-x="1699" >
<font-face units-per-em="2048" ascent="1513" descent="-535" />
<missing-glyph horiz-adv-x="487" />
<glyph unicode="&#xfb01;" horiz-adv-x="1218" d="M649 940h123v-913h-123v-27h539v27h-123v940h-416v-27zM457 938h123v29h-123v166q0 163 32 241q46 107 154 107q49 0 91.5 -32.5t49.5 -80.5q-12 16 -38.5 29.5t-55.5 13.5q-50 0 -85.5 -35t-35.5 -84q0 -53 35 -87t84 -34q61 0 100 52q35 47 35 104q0 94 -70 151.5 t-190 57.5q-215 0 -315 -147q-84 -124 -84 -338v-84h-123v-29h123v-911h-123v-27h539v27h-123v911z" />
<glyph unicode="&#xfb02;" horiz-adv-x="1245" d="M1182 1513h-549q-281 0 -391 -170q-78 -121 -78 -376h-123v-27h123v-913h-123v-27h539v27h-123v913h176v27h-176v209q0 173 61 251q44 60 115 60q116 3 176 -107v-1353h-123v-27h539v27h-123v1460h80v26z" />
<glyph horiz-adv-x="0" />
<glyph horiz-adv-x="682" />
<glyph unicode=" "  horiz-adv-x="487" />
<glyph unicode="&#x09;" horiz-adv-x="487" />
<glyph unicode="&#xa0;" horiz-adv-x="487" />
<glyph unicode="!" horiz-adv-x="575" d="M301 346q0 19 8 82q13 100 21 170q15 144 49 436q4 38 10.5 100t9.5 85q4 30 7.5 66.5t3.5 37.5q4 54 -31.5 92.5t-89.5 38.5t-89.5 -36.5t-33.5 -90.5q0 -61 29 -309q18 -175 49 -424q4 -30 10.5 -85t9.5 -79q7 -77 8 -84q3 -14 15 -14q11 0 14 14zM412 92q0 51 -36 87 t-87 36t-87 -36t-36 -87t36 -86t87 -35t87 35t36 86z" />
<glyph unicode="&#x22;" horiz-adv-x="434" d="M137 993q0 1 0.5 4.5t1.5 11.5t2 17q1 11 5 36.5t6 39.5q9 66 14 98q8 68 22 186q3 32 7 50q4 34 -18.5 55.5t-55.5 21.5q-35 0 -58 -20q-8 -7 -12.5 -15.5t-7 -15.5t-1.5 -22.5t2.5 -26t5 -36t5.5 -42.5q7 -53 20 -149.5t17 -128.5q8 -52 8 -64q3 -18 19 -18q15 0 18 18 zM334 993q0 1 0.5 4.5t1.5 11.5t2 17q1 12 5 39.5t5 36.5q9 66 14 98q5 43 14 114t9 72q3 38 6 50q4 34 -18.5 55.5t-55.5 21.5q-34 0 -57 -20q-8 -7 -12.5 -15.5t-7 -15.5t-1.5 -22.5t2.5 -26t5 -36t5.5 -42.5q7 -53 20 -149.5t17 -128.5q8 -52 8 -64q3 -18 18 -18 q16 0 19 18z" />
<glyph unicode="#" horiz-adv-x="1132" d="M584 1434l-428 -1434h30l428 1434h-30zM985 1434l-428 -1434h31l428 1434h-31zM956 502l9 28h-914l-10 -28h915zM1083 938l9 29h-916l-8 -29h915z" />
<glyph unicode="$" horiz-adv-x="1144" d="M457 -27v-96h30v92q23 -2 70 -2q35 0 76 6v-96h31v100q174 26 280 129q119 119 119 306q0 199 -109 317q-90 98 -290 182v527q116 -16 197 -71t112 -126q-42 26 -94 14q-48 -12 -73.5 -55t-12.5 -92q12 -49 54.5 -74.5t92.5 -13.5q87 22 84 141q-3 95 -90 185 q-104 101 -270 120v99h-31v-97q-27 4 -71.5 2t-74.5 -8v103h-30v-107q-161 -28 -256 -133q-105 -111 -105 -289q0 -148 107 -258q88 -90 254 -160v-618q-130 13 -228 84q-67 48 -94 113q45 -28 94 -17q49 12 74.5 56t13.5 92q-12 49 -54.5 74.5t-92.5 13.5 q-48 -12 -69.5 -50t-16.5 -90q10 -107 100 -188q102 -96 273 -115zM457 1405v-397q-121 77 -121 188q0 63 32 118.5t89 90.5zM633 1442v-518q-113 46 -146 65v432q52 24 146 21zM664 25v487q76 -55 112.5 -116.5t36.5 -139.5q0 -76 -41 -138t-108 -93zM487 -2v608 q104 -49 146 -74v-520q-51 -17 -146 -14z" />
<glyph unicode="%" horiz-adv-x="1441" d="M1081 1434l-743 -1422l29 -12l739 1421zM707 1122q0 142 -89 228q-90 84 -233 84q-142 0 -235 -93q-89 -89 -89 -229q0 -144 78 -231q82 -95 240 -95q157 0 246 99q82 91 82 237zM385 1405q62 0 90 -72q27 -73 27 -209q0 -135 -25 -221q-29 -88 -90 -88q-68 0 -96 88 q-27 82 -27 221q0 136 31 209q31 72 90 72zM1380 336q0 142 -88 227q-90 84 -233 84q-144 0 -236 -92q-88 -88 -88 -229q0 -145 78 -232q81 -94 240 -94q157 0 245 98q82 91 82 238zM1059 618q63 0 90 -71q27 -73 27 -209q0 -135 -25 -221q-29 -88 -90 -88q-68 0 -96 88 q-27 82 -27 221q0 136 31 209q30 71 90 71z" />
<glyph unicode="&#x26;" horiz-adv-x="1280" d="M1065 502q24 96 27 160q2 59 14 139q12 66 43 100.5t100 38.5v27h-385v-27q143 -8 185 -133q28 -94 -5 -279q-12 14 -45.5 53t-54.5 62q-52 58 -110 125q-142 157 -189 236q78 56 137 133q64 84 64 163q2 64 -42.5 111.5t-117.5 48.5q-47 0 -106 -28t-109 -80 q-127 -134 -127 -324q0 -72 21 -154q-224 -143 -297 -311q-89 -206 47 -401q75 -108 179 -153t220 -32q107 10 209.5 65t175.5 138q65 -68 77 -130t-36 -105l8 -13l8 -12q103 22 170 98q72 82 72 187q0 139 -133 297zM412 326q-81 100 -113.5 188t-15 170.5t89.5 153.5 q53 -134 217 -330q128 -154 291 -309q-87 -93 -207 -66q-131 29 -262 193zM815 1307q0 -74 -59 -158q-40 -54 -125 -119q-60 104 -60 197q0 74 25 131q31 67 106 67q48 0 82 -39q31 -36 31 -79z" />
<glyph unicode="'" horiz-adv-x="237" d="M137 993q0 1 0.5 4.5t1.5 11.5t2 17q1 11 5 36.5t6 39.5q9 66 14 98q8 68 22 186q3 32 7 50q4 34 -18.5 55.5t-55.5 21.5q-35 0 -58 -20q-8 -7 -12.5 -15.5t-7 -15.5t-1.5 -22.5t2.5 -26t5 -36t5.5 -42.5q7 -53 20 -149.5t17 -128.5q8 -52 8 -64q3 -18 19 -18q15 0 18 18 z" />
<glyph unicode="(" horiz-adv-x="348" d="M410 1636l-25 15q-191 -210 -288 -452.5t-97 -541.5q0 -302 100 -569q103 -275 277 -461l24 15q-142 225 -211 471.5t-69 543.5q0 288 76 533q68 218 213 446z" />
<glyph unicode=")" horiz-adv-x="348" d="M-37 1651l-24 -15q145 -228 213 -446q75 -242 75 -533q0 -297 -69 -543.5t-211 -471.5l24 -15q174 186 277 461q100 267 100 569q0 299 -97 541.5t-288 452.5z" />
<glyph unicode="*" horiz-adv-x="1185" d="M610 768q0 1 0.5 4.5t1.5 11.5t2 17q1 11 5 36.5t6 39.5q9 66 14 98q5 43 14 114t9 72q3 37 6 49q4 34 -19 56t-55 22q-34 0 -57 -20q-7 -6 -11.5 -12t-6.5 -15t-3 -16t0 -21.5t2.5 -24.5t4.5 -32t5 -37q7 -53 20 -150.5t17 -128.5q8 -52 8 -63q3 -18 19 -18q15 0 18 18z M526 733q-1 1 -30 17q-80 34 -158 73q-20 8 -53.5 25.5t-38.5 19.5q-15 7 -40.5 19.5t-37.5 17.5q-7 3 -20.5 9.5t-19.5 9t-16 6t-16.5 3.5t-15 -2t-17.5 -7q-26 -15 -36 -45.5t2 -59.5q3 -8 7.5 -14t8.5 -10t13 -8t15 -6t20 -5t22.5 -4.5t28.5 -4.5t32 -5q27 -6 79 -16.5 t64 -12.5q67 -14 134 -24q17 -3 32 -5.5t21.5 -4t7.5 -1.5q18 -5 23.5 10t-11.5 25zM535 641q-1 -1 -3.5 -4t-8 -9t-11.5 -12q-40 -40 -53 -55q-86 -86 -140 -145q-3 -4 -57 -64q-10 -10 -21.5 -22.5t-13.5 -14.5q-22 -27 -16.5 -56.5t31.5 -49.5q25 -20 57 -16.5t51 34.5 q17 28 72 129q8 16 24.5 46t22.5 42q48 86 80 148q12 24 14 26q7 18 -4.5 26.5t-23.5 -3.5zM625 618q0 -1 1.5 -4t6 -10t8.5 -14q26 -47 37 -68q25 -47 47 -86q87 -161 90 -166t10.5 -19.5t10 -18.5t8.5 -13.5t11.5 -12.5t13.5 -6.5t18 -4.5q31 -3 58 15t34 48q5 26 -9 47 t-58 68q-4 5 -6.5 7t-6 6t-6.5 7q-167 172 -197 203q-12 12 -22 22.5t-16 16.5l-5 6q-12 12 -23.5 3.5t-4.5 -26.5zM672 698q1 0 4.5 1t12 2.5t16.5 3.5q92 18 174 32q16 3 32.5 6t36 7t29.5 6q7 1 38 6.5t46 9.5q25 4 49 10q34 7 48 35t3 60q-11 31 -38 46.5t-60 2.5 q-52 -21 -133 -62q-16 -7 -46.5 -22.5t-45.5 -22.5q-18 -8 -48 -23l-36 -18q-15 -6 -36.5 -16t-29.5 -14q-7 -3 -14.5 -6.5t-10.5 -5t-4 -1.5q-17 -12 -11.5 -24.5t24.5 -12.5z" />
<glyph unicode="+" horiz-adv-x="997" d="M956 514h-442v442h-33v-442h-440v-29h440v-444h33v444h442v29z" />
<glyph unicode="," horiz-adv-x="411" d="M195 313q-64 0 -109 -45t-45 -110q0 -67 46 -112.5t108 -45.5q73 0 118 49q-17 -69 -71 -114.5t-127 -59.5l4 -27q102 21 176 95q76 76 76 178q0 88 -60 145q-50 47 -116 47z" />
<glyph unicode="-" horiz-adv-x="491" d="M61 590v-164h369v164h-369z" />
<glyph unicode="." horiz-adv-x="395" d="M354 156q0 66 -44.5 111.5t-110.5 45.5t-112 -45.5t-46 -111.5q0 -64 46.5 -110t111.5 -46t110 46t45 110z" />
<glyph unicode="/" horiz-adv-x="499" d="M451 1442l-431 -1442l29 -8l430 1442z" />
<glyph unicode="0" horiz-adv-x="1343" d="M1262 719q0 305 -134 506q-159 235 -454 235q-291 0 -449 -225q-143 -203 -143 -516q0 -318 127 -510q151 -236 461 -236q301 0 456 222q136 195 136 524zM672 1434q120 0 184 -129q50 -100 68 -291q8 -106 8 -295q0 -359 -55 -539q-58 -180 -207 -180q-140 0 -199 176 q-59 177 -59 543q0 189 10 295q14 179 67 289q64 131 183 131z" />
<glyph unicode="1" horiz-adv-x="657" d="M57 1171h115v-1144h-131v-27h575v27h-131v1437h-28q-24 -107 -125 -180q-115 -86 -275 -86v-27z" />
<glyph unicode="2" horiz-adv-x="1034" d="M150 1194q0 -51 35.5 -87t86.5 -36t87 36t36 87t-36 87t-87 36q-40 0 -69 -21q30 51 91 85t128 34q106 0 166 -80q55 -73 55 -180q0 -120 -41 -223q-74 -176 -240 -367q-70 -79 -135 -172q-145 -207 -145 -393h29q13 9 41 16q42 11 88 11q62 0 184 -27t227 -27 q153 0 217 127q26 51 31 115t-10 111h-27q-3 -22 -43 -43q-44 -23 -135 -23q-40 0 -76 8q-40 6 -84 15q-147 20 -172 20q-78 0 -116 -14q-44 -15 -46 -17q49 77 119 136q24 20 52 41.5t49 37t58 40.5t53 35.5t60.5 39.5t55.5 37q92 63 156 127q157 154 157 340 q0 172 -135 266q-127 86 -311 86q-153 0 -252 -74q-102 -73 -102 -190z" />
<glyph unicode="3" horiz-adv-x="1005" d="M567 852v2q131 33 207 139q68 95 68 195t-68 176q-87 94 -258 94q-167 0 -283 -80q-86 -59 -145 -168l25 -14q41 71 108 115q74 49 152 49q91 0 141.5 -60t50.5 -172q0 -126 -102 -210q-81 -64 -193 -76v-27q159 12 250 -94q88 -105 88 -289q0 -232 -106 -342 q-77 -80 -185 -80q-53 0 -122 27q-71 28 -97 72q8 -8 11 -9q12 -6 45 -6q51 0 86.5 36t35.5 87t-36 87t-86 36q-51 0 -87 -36t-36 -87q0 -34 19 -75.5t56 -75.5q97 -93 271 -93q220 0 373 115q174 131 174 363q0 195 -129 313q-53 45 -114 67.5t-114 20.5z" />
<glyph unicode="4" horiz-adv-x="1036" d="M25 483v-30h462v-426h-147v-27h588v25h-129v428h217v26h-217v955h-144zM487 479h-428l428 649v-649z" />
<glyph unicode="5" horiz-adv-x="1067" d="M82 217q0 -34 19.5 -75t56.5 -76q97 -93 270 -93q92 0 189 27t176 82q192 135 192 407q0 231 -147 365q-68 61 -160 93t-193 32q-98 0 -188 -39q-85 -37 -123 -72q12 177 23 267q1 14 2 26.5t1.5 18t0.5 6.5q343 -44 544 37q181 73 181 235h-23q-30 -33 -176 -43 q-121 -11 -291 -4q-152 6 -248 23l-45 -592l33 -11q11 11 23 21q15 13 49 33q73 43 149 43q130 0 198.5 -114t68.5 -341q0 -242 -93 -364q-78 -99 -213 -99q-70 0 -135 37q-53 30 -73 62q8 -9 10 -9q12 -6 45 -6q51 0 87 36t36 87t-36.5 87t-86.5 36q-51 0 -87 -36t-36 -87z " />
<glyph unicode="6" horiz-adv-x="1183" d="M985 1253q0 92 -94 152q-88 53 -189 53q-318 0 -475 -264q-133 -224 -133 -582q0 -263 117 -436q138 -203 393 -203q209 0 342 121q149 133 152 361q3 200 -121 327q-56 56 -130.5 86.5t-150.5 30.5q-106 0 -180 -45q-41 -24 -80 -63q4 96 31 237q29 164 90 268 q77 127 191 127q39 0 77 -14t58 -33q-58 10 -99 -26.5t-43 -89.5q-1 -50 33 -86t86 -41q50 0 85 34t40 86zM432 741q20 40 67 66.5t95 26.5q106 0 151 -154q27 -93 27 -252q0 -176 -20 -256q-19 -78 -57 -124.5t-101 -45.5q-92 0 -135 158q-49 180 -27 581z" />
<glyph unicode="7" horiz-adv-x="962" d="M61 1434v-332h29q13 195 137 262q52 27 121 35t172 8h185q-132 -95 -252 -348q-114 -243 -181 -527t-67 -507h-123v-25h559v25h-123q0 395 127 792q121 378 297 588v29h-881z" />
<glyph unicode="8" horiz-adv-x="1093" d="M559 1456q-145 3 -262 -70q-130 -85 -150 -233q-18 -129 27.5 -233.5t173.5 -194.5q-109 -51 -186 -137q-103 -119 -103 -242q0 -185 136 -287q123 -92 333 -92q194 0 334 90q168 108 168 299q0 179 -80 295q-69 101 -256 219q80 41 146 107q90 94 90 197q0 125 -115 208 q-102 71 -256 74zM559 1430q95 0 146 -78q43 -68 43 -191q0 -87 -29.5 -159t-67.5 -97q-163 97 -227 182q-59 75 -59 156q0 79 54.5 133t139.5 54zM295 313q0 127 33 224.5t80 142.5q187 -123 269.5 -220.5t82.5 -201.5q0 -105 -53 -178q-62 -86 -177 -86q-113 0 -174 82 t-61 237z" />
<glyph unicode="9" horiz-adv-x="1183" d="M197 178q0 -93 94 -149q88 -56 188 -56q319 0 477 265q131 220 131 581q0 265 -116 436q-138 203 -393 203q-208 0 -342 -119q-149 -136 -152 -362q-3 -205 123 -328q114 -117 278 -117q102 0 181 46q58 34 79 63q-1 -15 -5 -51.5t-5 -52.5q-6 -62 -18 -134 q-34 -174 -90 -266q-76 -129 -193 -129q-39 0 -77 14t-58 33q58 -10 98.5 26.5t42.5 90.5q1 51 -32.5 86.5t-85.5 40.5q-50 0 -85 -34.5t-40 -86.5zM750 690q-20 -40 -67 -66t-95 -26q-107 0 -152 156q-26 89 -26 250q0 176 20 256q19 78 57 124.5t101 45.5q89 0 127 -160 q43 -185 35 -580z" />
<glyph unicode=":" horiz-adv-x="395" d="M354 156q0 66 -44.5 111.5t-110.5 45.5t-112 -45.5t-46 -111.5q0 -64 46.5 -110t111.5 -46t110 46t45 110zM354 809q0 66 -44.5 112t-110.5 46t-112 -46t-46 -112q0 -63 46.5 -109.5t111.5 -46.5t110 46t45 110z" />
<glyph unicode=";" horiz-adv-x="411" d="M195 313q66 0 116 -47q60 -57 60 -145q0 -102 -76 -178q-74 -74 -176 -95l-4 27q73 14 127 59.5t71 114.5q-45 -49 -118 -49q-62 0 -108 45.5t-46 112.5q0 65 45 110t109 45zM354 809q0 66 -44.5 112t-110.5 46t-112 -46t-46 -112q0 -63 46.5 -109.5t111.5 -46.5t110 46 t45 110z" />
<glyph unicode="&#x3c;" horiz-adv-x="1064" d="M1044 -49v35l-985 495l985 496v35l-1024 -514v-33z" />
<glyph unicode="=" horiz-adv-x="997" d="M956 664v28h-915v-28h915zM956 313v29h-915v-29h915z" />
<glyph unicode="&#x3e;" horiz-adv-x="1064" d="M20 -14v-35l1024 514v33l-1024 514v-35l986 -496z" />
<glyph unicode="?" horiz-adv-x="964" d="M82 1194q0 -51 36 -87t87 -36t87 36t36 87t-36 87t-87 36q-41 0 -70 -21q30 51 91 85t128 34q106 0 166 -80q55 -73 55 -180q0 -80 -22 -154q-34 -102 -123 -253q-33 -56 -61 -123q-60 -147 -27 -301h27q-9 99 24 161q55 103 217 203q68 39 131 96q142 128 142 322 q0 172 -135 266q-127 86 -312 86q-153 0 -252 -74q-102 -73 -102 -190zM258 94q0 -51 36 -87t87 -36t87 36t36 87t-36 87t-87 36t-87 -36t-36 -87z" />
<glyph unicode="@" horiz-adv-x="1669" d="M1583 817q15 125 -33 248q-59 159 -202 260q-164 123 -381 145q-218 22 -418 -61q-191 -81 -309 -242q-132 -175 -152 -370q-26 -230 68 -422q86 -180 252 -285q195 -133 477 -133q121 0 222.5 23t164.5 65l-15 25q-49 -36 -139 -60q-211 -56 -459 0q-110 23 -221 92 q-105 63 -166 140q-127 150 -155 354q-28 196 39 367q62 176 221 311q80 68 186 113t217 57q218 22 393.5 -50.5t278.5 -205.5q89 -127 104 -250q15 -166 -43 -295q-29 -69 -74 -126.5t-89 -88.5q-59 -39 -86 -39q-36 0 -47 51q-9 33 -9 84q0 124 62 324q46 158 102 295 h-293q-37 -104 -51 -154q6 55 -10 107q-34 93 -230 69q-168 -25 -299 -168q-65 -78 -106 -178q-43 -108 -43 -198q0 -86 35 -158q33 -67 96 -103t143 -30q114 3 197 96q13 15 25.5 31t23.5 34.5t17.5 30.5t17.5 33t14 27q-8 -117 50.5 -191t162.5 -74q73 0 149.5 33.5 t141.5 95.5q146 149 170 371zM956 748q-26 -78 -75 -166q-58 -103 -74 -121q-40 -45 -70.5 -63.5t-60.5 -12.5q-26 6 -42 41.5t-16 93.5q0 139 64 293q75 175 158 252q82 76 124 58t40 -117q-4 -125 -48 -258z" />
<glyph unicode="A" horiz-adv-x="1552" d="M1411 27l-575 1448h-27l-668 -1448h-110v-27h270v27h-123l236 516h444l205 -516h-123v-27h582v27h-111zM651 1063l197 -492h-424z" />
<glyph unicode="B" horiz-adv-x="1394" d="M51 1434v-27h123v-1380h-123v-27h316q48 0 71 -2t72 -2q13 -1 39.5 -2t40.5 -2q27 -2 92 -2q295 0 448 88q183 102 183 330q0 193 -160 305q-137 96 -332 96v2q126 0 228 74q120 84 120 241q0 179 -161 258q-125 60 -342 60q-66 0 -156 -4q-71 -6 -143 -6h-316zM498 819 v590q152 14 235 -35q105 -62 105 -233t-105 -256q-93 -76 -235 -66zM498 25v759q210 10 329 -57q146 -85 146 -305q0 -233 -131 -334q-118 -89 -344 -63z" />
<glyph unicode="C" horiz-adv-x="1394" d="M82 682q0 -324 209 -520q204 -195 545 -195q106 0 235 29q120 27 219 82v409h-28q-17 -227 -99 -344q-108 -147 -321 -147q-214 0 -310 176q-94 164 -94 504q0 322 80 504q109 260 373 260q174 0 268.5 -96.5t114.5 -307.5h29v322q-182 110 -429 110q-168 0 -313 -52.5 t-250 -153.5q-109 -104 -169 -251.5t-60 -328.5z" />
<glyph unicode="D" horiz-adv-x="1509" d="M51 1434v-27h123v-1380h-123v-27h287q82 0 168 -4t119 -4q368 0 573 176q229 194 229 573q0 336 -245 527q-110 85 -258.5 128.5t-313.5 43.5q-44 0 -71 -2q-54 -4 -119 -4h-369zM498 25v1382q130 8 229 -13.5t170 -88.5q164 -158 164 -586q0 -417 -154 -580 q-132 -140 -409 -114z" />
<glyph unicode="E" horiz-adv-x="1206" d="M51 1434v-27h123v-1380h-123v-27h1084v395h-29q-11 -220 -131 -303q-94 -63 -297 -63h-180v680h94q106 0 151 -7q105 -10 153.5 -68t53.5 -161h27v469h-27q-8 -89 -58.5 -139t-150.5 -60q-31 -6 -143 -6h-100v668h133q103 0 172 -8t121 -35q59 -32 93 -94t44 -168h29v334 h-1039z" />
<glyph unicode="F" horiz-adv-x="1148" d="M51 1434v-27h123v-1380h-123v-27h582v27h-135v682h80q94 0 139 -7q105 -10 153.5 -67.5t53.5 -161.5h26v469h-26q-8 -89 -58.5 -139t-150.5 -60q-31 -6 -129 -6h-88v668h120q103 0 172 -8t121 -35q119 -66 138 -262h28v334h-1026z" />
<glyph unicode="G" horiz-adv-x="1488" d="M1520 553h-574v-27h123v-229q0 -146 -31 -209q-44 -92 -178 -92q-240 0 -342 215q-80 169 -80 465q0 186 27 321q41 203 127 306q110 137 297 137q174 0 268.5 -96.5t114.5 -307.5h28v322q-182 110 -428 110q-168 0 -313 -52.5t-250 -153.5q-108 -104 -167.5 -251 t-59.5 -329q0 -321 215 -520q211 -195 543 -195q135 0 272 37q179 49 285 131v391h123v27z" />
<glyph unicode="H" horiz-adv-x="1515" d="M51 1434v-27h123v-1380h-123v-27h572v27h-123v667h516v-667h-121v-27h569v27h-123v1380h123v27h-571v-27h123v-684h-516v684h123v27h-572z" />
<glyph unicode="I" horiz-adv-x="673" d="M500 27v1380h123v27h-572v-27h123v-1380h-123v-27h572v27h-123z" />
<glyph unicode="J" horiz-adv-x="864" d="M690 580v827h123v27h-569v-27h123v-1149q0 -123 -44.5 -190.5t-129.5 -67.5q-35 0 -62 10q-10 5 -22 13q61 -9 102 32q39 36 39 88q0 54 -35.5 89.5t-89.5 35.5q-52 0 -88 -36t-35 -89q3 -89 80 -135q65 -39 149 -39q213 0 326 127q133 149 133 484z" />
<glyph unicode="K" horiz-adv-x="1587" d="M518 27v1378h123v29h-569v-27h123v-1380h-123v-27h569v27h-123zM1155 1405l-633 -639v-4l500 -735h-123v-27h627v27h-111l-641 944l422 434h111v29h-275v-29h123z" />
<glyph unicode="L" horiz-adv-x="1185" d="M520 29v1378h142v27h-590v-27h123v-1378h-123v-29h1050v395h-28q-11 -220 -131 -303q-94 -63 -297 -63h-146z" />
<glyph unicode="M" horiz-adv-x="1761" d="M174 27h-123v-27h277v27h-123v1374h2l512 -1421h31l507 1421h3v-1374h-123v-27h573v27h-123v1380h123v27h-473l-342 -957l-352 957h-492v-27h123v-1380z" />
<glyph unicode="N" horiz-adv-x="1347" d="M592 1434h-520v-27h123v-1380h-123v-27h276v27h-123v1374h2l895 -1428h31v1434h123v27h-277v-27h123v-813h-2z" />
<glyph unicode="O" d="M82 688q0 -332 205 -524q99 -95 236.5 -146t301.5 -51q156 0 298.5 46.5t250.5 136.5q244 204 244 559q0 334 -191 540q-203 219 -557 219q-341 0 -557 -198q-231 -212 -231 -582zM1255 682q0 -178 -24 -311q-31 -171 -115 -265q-99 -110 -270 -110q-206 0 -307 186 q-97 178 -97 500q0 178 23 322q26 187 113 303q101 133 274 133q221 0 319 -221q84 -189 84 -537z" />
<glyph unicode="P" horiz-adv-x="1284" d="M625 0v27h-123v487q290 -32 477 64q233 119 233 421q0 161 -100 273q-78 87 -219 135q-112 37 -223 37q-46 0 -152 -4q-82 -6 -147 -6h-320v-29h123v-1378h-123v-27h574zM502 543v866q154 17 256 -76q121 -111 121 -336q0 -216 -78 -331q-91 -134 -299 -123z" />
<glyph unicode="Q" d="M881 -31q-114 -22 -172 -93.5t-58 -170.5q0 -100 76 -176t184 -76q62 0 115.5 28.5t89.5 76.5q79 106 39 227h-27q-37 -82 -133 -82q-54 0 -98 33q-51 38 -51 96q0 74 67 115q36 22 150 55q270 79 412.5 258t142.5 449q0 164 -49.5 303.5t-143.5 240.5q-199 215 -551 215 q-364 0 -581 -217q-211 -214 -211 -563q0 -175 61 -316t172 -237q111 -95 257 -139t309 -27zM862 -4q-218 -9 -323 178q-101 180 -101 508q0 352 90 539q106 219 332 219q217 0 311 -215q80 -183 80 -543q0 -336 -91.5 -506t-297.5 -180z" />
<glyph unicode="R" horiz-adv-x="1382" d="M500 684q114 0 173.5 -10t96.5 -47q39 -39 55.5 -120t16.5 -226q0 -150 63.5 -229t206.5 -79q113 0 186 66q52 46 64 111l-23 8q-1 -2 -6 -15q-4 -12 -12 -20q-23 -27 -51 -27q-57 0 -72 58q-18 59 -18 190q0 164 -74 252q-97 109 -324 109v2q176 10 295 100 q127 96 127 256q0 201 -190 303q-76 40 -166.5 59t-167.5 19q-68 0 -158 -4q-68 -6 -141 -6h-330v-29h123v-1378h-123v-27h572v27h-123v657zM500 715v694q178 13 266 -49q104 -74 104 -273q0 -375 -370 -372z" />
<glyph unicode="S" horiz-adv-x="1153" d="M952 1036v322q-73 43 -161 72q-116 38 -246 38q-192 0 -318 -114q-133 -120 -133 -318q0 -155 86 -250q74 -86 258 -161q197 -81 285 -164.5t88 -204.5q0 -107 -80 -184q-79 -76 -196 -76q-192 0 -299 135q-100 126 -115 356h-29v-409q70 -44 201 -76q144 -35 252 -35 q215 0 354 105q162 122 162 340q0 217 -113 336q-47 50 -111 84.5t-157 70.5q-186 69 -266 133.5t-80 159.5q0 103 61 170q64 74 172 74q168 0 256 -111q86 -108 101 -293h28z" />
<glyph unicode="T" horiz-adv-x="1320" d="M500 1405v-1378h-123v-27h569v27h-123v1378q103 0 171 -8.5t120 -36.5q118 -65 137 -260h29v334h-1239v-334h29q13 194 139 262q50 27 119 35t172 8z" />
<glyph unicode="U" horiz-adv-x="1435" d="M72 1434v-27h123v-700q0 -243 22 -363q32 -176 150 -266q137 -105 401 -105q255 0 389 174q72 92 98.5 198t26.5 263v799h123v27h-277v-27h123v-846q0 -249 -114 -397q-125 -162 -359 -162q-166 0 -221 176q-15 49 -23 123t-9 126.5t-1 150.5v829h123v27h-575z" />
<glyph unicode="V" horiz-adv-x="1406" d="M1233 1407l-381 -977l-365 977h123v27h-579v-27h110l535 -1434h33l557 1434h110v27h-266v-27h123z" />
<glyph unicode="W" horiz-adv-x="2027" d="M709 -27l299 772l288 -774l33 2l557 1434h111v27h-266v-27h122l-380 -977l-365 977h123v27h-469v-27l231 -619l-141 -358l-365 977h123v27h-579v-27h110l535 -1436z" />
<glyph unicode="X" horiz-adv-x="1470" d="M31 1434v-27h110l449 -766l-408 -614h-110v-27h270v27h-123l387 585l346 -585h-123v-27h611v29h-111l-498 843l355 535h110v27h-270v-27h123l-334 -506l-295 504h123v29h-612z" />
<glyph unicode="Y" horiz-adv-x="1423" d="M1393 1407v27h-269v-27h123l-360 -631l-371 631h123v27h-608v-27h110l432 -739v-641h-122v-27h571v27h-123v710l383 670h111z" />
<glyph unicode="Z" horiz-adv-x="1327" d="M127 1434v-334h29q13 194 139 262q50 27 119 35t172 8h241l-735 -1376v-29h1112v395h-28q-11 -220 -129 -301q-97 -65 -299 -65h-287l737 1378v27h-1071z" />
<glyph unicode="[" horiz-adv-x="256" d="M41 1473v-1926h215v27h-184v1872h184v27h-215z" />
<glyph unicode="\" horiz-adv-x="499" d="M479 0l-430 1442l-29 -8l431 -1442z" />
<glyph unicode="]" horiz-adv-x="256" d="M215 -453v1926h-215v-27h184v-1872h-184v-27h215z" />
<glyph unicode="^" horiz-adv-x="854" d="M66 725l360 752l360 -752l27 12l-371 774h-30l-371 -774z" />
<glyph unicode="_" horiz-adv-x="1024" d="M0 -94v-31h995v31h-995z" />
<glyph unicode="`" horiz-adv-x="389" d="M369 1120q-2 2 -17 29q-27 44 -37 61q-1 2 -96 164q-9 15 -23.5 38.5t-19.5 31.5q-5 7 -13 21.5t-12 20t-11.5 13t-16 10.5t-19.5 4q-31 0 -53 -17t-28 -46q-6 -32 23 -64q9 -10 60 -59q17 -16 50.5 -48t50.5 -48q19 -19 49 -48.5t43 -41.5q12 -12 22 -21.5t15 -14.5 l6 -5q7 0 27 20z" />
<glyph unicode="a" horiz-adv-x="1021" d="M244 868q30 36 77 59t95 23q63 0 100 -37q43 -46 43 -153v-223q-234 -23 -364 -91q-154 -80 -154 -217q0 -126 94 -194q83 -60 217 -60q70 0 133.5 28t100.5 71q63 -99 192 -99q92 0 148 45q40 30 45 62l-27 10q-14 -41 -49 -41q-29 0 -35 29q-8 24 -8 84v444 q0 205 -92 297q-86 86 -260 86q-172 0 -260 -88q-70 -67 -70 -145q0 -50 35 -85.5t84 -35.5t85 35.5t36 85.5q0 49 -35.5 84t-85.5 35q-24 0 -45 -9zM453 35q-61 0 -88 59q-29 56 -29 131q0 108 57 183.5t166 99.5v-260q0 -92 14 -146q-13 -21 -52 -44t-68 -23z" />
<glyph unicode="b" horiz-adv-x="1216" d="M467 150v671q19 39 60 68t89 29q94 0 152 -125q55 -119 55 -297q0 -166 -39 -279q-59 -164 -182 -164q-83 0 -135 97zM467 877v636h-416v-26h123v-1460h-123v-27h408l8 96q22 -40 76 -73q69 -48 172 -48q66 0 139 27.5t135 83.5q156 142 156 393q0 248 -152 393 q-61 58 -134.5 88.5t-135.5 30.5q-97 0 -170 -39q-62 -36 -86 -75z" />
<glyph unicode="c" horiz-adv-x="972" d="M655 117q-139 0 -211 147q-61 116 -61 271q0 147 61 266q73 149 205 149q44 0 88.5 -21.5t67.5 -47.5q-64 28 -117 -4q-25 -15 -40 -42.5t-15 -58.5q0 -51 35 -87t86 -36q53 0 85.5 37t32.5 92q0 89 -77 148q-80 61 -226 61q-208 0 -346 -129q-151 -141 -151 -383 q0 -231 139 -373q61 -64 139.5 -97.5t161.5 -33.5q158 0 276 95q92 74 123 168l-24 12q-26 -42 -72 -78q-70 -55 -160 -55z" />
<glyph unicode="d" horiz-adv-x="1216" d="M750 821v-671q-52 -97 -134 -97q-96 0 -153 92q-70 107 -70 314q0 209 64 334q61 125 157 125q89 0 136 -97zM750 1487v-610q-21 38 -82 75q-70 39 -160 39q-64 0 -138.5 -30t-138.5 -89q-159 -145 -159 -393q0 -262 143 -395q115 -109 287 -109q97 0 164 41q54 33 84 80 l8 -96h407v27h-123v1486h-415v-26h123z" />
<glyph unicode="e" horiz-adv-x="948" d="M872 219l-24 14q-20 -32 -70 -65q-59 -39 -141 -39q-127 0 -195 133q-55 102 -59 248q229 12 330 47q164 56 164 188q0 121 -113 191q-96 55 -225 55q-99 0 -185.5 -39t-148.5 -110q-133 -149 -133 -369q0 -202 106 -340q121 -158 316 -158q155 0 262 86q87 70 116 158z M629 782q0 -127 -55.5 -180.5t-192.5 -64.5q3 207 55 325q46 103 99 103q37 0 65.5 -52t28.5 -131z" />
<glyph unicode="f" horiz-adv-x="720" d="M467 938h123v29h-123v166q0 160 33 241q46 107 153 107q49 0 92 -32.5t50 -80.5q-12 16 -38.5 29.5t-56.5 13.5q-50 0 -85 -35t-35 -84q0 -53 34.5 -87t83.5 -34q62 0 101 52q35 47 35 104q0 93 -70.5 151t-190.5 58q-215 0 -315 -147q-84 -124 -84 -338v-84h-123v-29 h123v-911h-123v-27h539v27h-123v911z" />
<glyph unicode="g" horiz-adv-x="1083" d="M662 635q0 -167 -33 -246q-34 -82 -90 -82q-59 0 -90 90q-33 85 -33 238q0 157 30 242q20 55 56 76t72.5 1t56.5 -77q31 -91 31 -242zM1022 1057q0 59 -38.5 97t-96.5 38q-50 0 -85.5 -34.5t-35.5 -84.5t35 -85.5t86 -35.5q68 0 98 52q-7 -40 -38.5 -78t-74.5 -62 q-141 127 -325 127q-173 0 -297 -98q-129 -106 -129 -260q0 -139 129 -252q-82 -23 -135 -82q-64 -71 -64 -156q0 -88 78 -149q75 -59 182 -74q-69 -10 -127 -74q-61 -71 -61 -135q0 -105 94 -170t254 -65q85 0 175 24t163 68q172 107 172 272q0 133 -84 209 q-95 86 -324 119q-173 24 -251 61q-80 38 -80 78q0 19 10 33.5t22 19.5q43 -32 129 -57q70 -20 144 -20q179 0 299 104q125 104 125 246q0 61 -21 116t-57 91q59 38 94 94t35 123zM346 -90q232 -39 334 -80q129 -55 129 -139q0 -97 -102 -142q-76 -36 -185 -36 q-106 0 -172.5 58.5t-66.5 156.5q0 65 18 112.5t45 69.5z" />
<glyph unicode="h" horiz-adv-x="1236" d="M174 1487v-1460h-123v-27h527v27h-111v778q13 27 59 55q56 31 101 31q97 0 129 -90q16 -51 16 -164v-610h-110v-27h524v27h-123v637q0 159 -75 240t-218 81q-90 0 -182 -45q-66 -35 -121 -90v663h-416v-26h123z" />
<glyph unicode="i" horiz-adv-x="641" d="M174 940h-123v27h416v-940h123v-27h-539v27h123v913zM477 1282q0 66 -44.5 112t-110.5 46t-112 -46t-46 -112q0 -64 46 -110t112 -46q65 0 110 46t45 110z" />
<glyph unicode="j" horiz-adv-x="616" d="M455 967v-469q0 -253 -19 -418q-15 -130 -63 -248q-120 -272 -393 -272q-73 0 -117 47q-37 37 -37 86q0 54 35.5 90.5t89.5 36.5t90.5 -36.5t36.5 -90.5q0 -35 -19 -65t-49 -44q76 14 114 73.5t38 182.5v1100h-123v27h416zM463 1282q0 66 -45 112t-111 46t-111.5 -46 t-45.5 -112q0 -64 46 -110t111 -46t110.5 46t45.5 110z" />
<glyph unicode="k" horiz-adv-x="1214" d="M467 774v739h-416v-26h123v-1460h-123v-27h527v27h-111v688q22 52 86 106q69 58 121 58q62 0 96.5 -43.5t34.5 -102.5q0 -94 -90 -143q-75 -41 -176 -41v-29q72 0 114.5 -72t42.5 -196q0 -133 64.5 -206t195.5 -73q81 0 136.5 39t81.5 99l-25 12q-11 -15 -16.5 -21 t-19.5 -15t-28 -9q-40 0 -61 53q-22 56 -31 156q-11 107 -49 162q-52 71 -158 79v2q109 0 197 78q92 79 92 187q0 83 -64 139.5t-177 56.5q-109 0 -211 -63q-100 -59 -156 -154z" />
<glyph unicode="l" horiz-adv-x="641" d="M467 27v1486h-416v-26h123v-1460h-123v-27h539v27h-123z" />
<glyph unicode="m" horiz-adv-x="1828" d="M1036 823q-65 160 -266 160q-94 0 -184 -49q-68 -37 -125 -94v22q-4 54 -4 105h-406v-27h123v-913h-123v-27h524v27h-108v772q15 25 61 55q50 33 99 33q36 0 62 -11t41.5 -30.5t24.5 -52.5t12 -69t3 -89v-608h-108v-27h512v27h-111v632q0 69 -14 127q29 36 59 60 q52 41 111 41q36 0 62 -11t41.5 -30.5t24.5 -52.5t12 -69t3 -89v-608h-111v-27h527v27h-123v632q0 159 -75.5 240.5t-219.5 83.5q-103 0 -201 -59q-73 -42 -123 -101z" />
<glyph unicode="n" horiz-adv-x="1236" d="M174 940v-913h-123v-27h527v27h-111v772q21 30 59 55q56 33 101 33q86 0 114.5 -60t28.5 -190v-610h-111v-27h527v27h-123v637q0 159 -74.5 239t-218.5 80q-94 0 -184 -49q-68 -37 -125 -94v22q-4 54 -4 105h-406v-27h123z" />
<glyph unicode="o" horiz-adv-x="1157" d="M1085 502q0 223 -139 356t-366 133q-229 0 -369 -143q-139 -139 -139 -361q0 -231 123 -366q133 -146 374 -146q246 0 387 154q129 141 129 373zM578 963q101 0 145 -121q41 -125 41 -334q0 -235 -39 -356q-47 -148 -143 -148q-102 0 -152 146q-41 119 -41 358 q0 217 49 336q46 119 140 119z" />
<glyph unicode="p" horiz-adv-x="1212" d="M467 115v727q22 30 62 54t83 24q96 0 152 -125q55 -123 55 -299q0 -172 -41 -281q-58 -158 -188 -158q-43 0 -75 17.5t-48 40.5zM461 877v16q-4 36 -4 74h-406v-27h123v-1425h-123v-27h539v27h-123v559q18 -32 80 -62q76 -37 164 -37q66 0 139 27.5t135 83.5 q156 142 156 393q0 253 -152 398q-60 57 -133.5 85.5t-136.5 28.5q-90 0 -166 -39q-68 -38 -92 -75z" />
<glyph unicode="q" horiz-adv-x="1212" d="M745 842l3 -723q-17 -24 -51 -44t-76 -20q-133 0 -191 158q-48 128 -37 283q9 177 66 297q59 125 151 125q77 0 135 -76zM750 881q-30 43 -93.5 76.5t-152.5 33.5q-66 0 -139.5 -28t-135.5 -86q-157 -146 -157 -398q0 -266 149 -401q59 -53 131.5 -78t141.5 -25 q85 0 143.5 26t107.5 73v-559h-122v-27h538v27h-123v1425h123v27h-405l-4 -41q-2 -10 -2 -29v-16z" />
<glyph unicode="r" horiz-adv-x="917" d="M666 991q-61 0 -115.5 -37.5t-91.5 -91.5v21q-2 10 -2 35v49h-406v-27h123v-913h-123v-27h539v27h-123v702q0 88 65 164q62 72 132 72q61 0 104 -27q-59 11 -104 -27q-46 -43 -46 -96q0 -51 37 -87t88 -36q53 0 88 38t33 93q-3 78 -63 125q-55 43 -135 43z" />
<glyph unicode="s" horiz-adv-x="833" d="M684 924q-142 71 -285 71q-139 0 -233 -94t-94 -242q0 -124 78 -202q62 -65 200 -117q104 -39 142 -66q73 -59 73 -131q0 -64 -55 -106q-50 -41 -121 -41q-121 0 -201 113q-69 92 -79 231h-29v-301q141 -72 317 -72q146 0 252 86q113 91 113 240q0 140 -70 225 q-63 73 -209 129q-123 49 -157 74q-62 46 -62 117q0 54 43 91.5t99 37.5q105 0 178 -86q60 -74 73 -193h27v236z" />
<glyph unicode="t" horiz-adv-x="669" d="M629 47q1 0 -0.5 2.5t-7.5 7.5q-7 7 -9 11q-33 -33 -84 -33q-41 0 -66.5 33.5t-25.5 101.5v770h187v27h-187v311h-30q-12 -76 -93 -127q-76 -51 -170 -51v-133h-92v-27h92v-647q0 -192 101 -268q66 -50 190 -50q61 0 115 22t80 50z" />
<glyph unicode="u" horiz-adv-x="1226" d="M1042 27v940h-403v-27h111v-772q-16 -23 -62 -59q-52 -41 -104 -41q-88 0 -117 96q-21 62 -21 164v639h-415v-27h123v-637q0 -159 74.5 -239t217.5 -80q94 0 187 51q82 45 123 92v-23q0 -10 4 -104h405v27h-123z" />
<glyph unicode="v" horiz-adv-x="1110" d="M565 967h-555v-27h111l424 -967h26l408 967h111v27h-267v-27h123l-246 -584l-258 584h123v27z" />
<glyph unicode="w" horiz-adv-x="1671" d="M551 -25l276 646l271 -646h26l416 965h111v27h-267v-27h123l-250 -580l-243 580h123v27h-445v-27l119 -283l-127 -297l-244 580h123v27h-553v-27h111l403 -965h27z" />
<glyph unicode="x" horiz-adv-x="1126" d="M432 440l-299 -413h-123v-27h283v27h-123l279 385l219 -385h-123v-27h571v27h-110l-351 620l211 293h111v27h-270v-27h122l-190 -264l-156 264h123v27h-571v-27h110z" />
<glyph unicode="y" horiz-adv-x="1097" d="M141 -317q0 -54 41.5 -88.5t100.5 -34.5t102 32q78 55 158 215q68 136 121 273q42 105 139 371q121 339 131 368q8 22 23 63.5t20 57.5h110v27h-266v-27h123l-225 -633l-277 633h123v27h-555v-27h111q205 -466 217 -494q62 -145 80 -184q13 -29 36 -84t35 -80 q14 -29 33 -72.5t21 -48.5q23 -55 24 -57q-69 -161 -118 -223q-55 -70 -91 -92q29 29 29 78q0 54 -37 89t-86 35q-52 0 -87.5 -37.5t-35.5 -86.5z" />
<glyph unicode="z" horiz-adv-x="1024" d="M565 940l-493 -920v-20h850v301h-31q-12 -159 -90 -217q-76 -57 -252 -57h-139l495 921v19h-823v-275h31q14 152 98 205q68 43 250 43h104z" />
<glyph unicode="{" horiz-adv-x="546" d="M338 -47v520q0 85 -39 131.5t-109 46.5v2q69 0 108.5 47.5t39.5 133.5v542q0 94 34 141.5t93 47.5v26q-132 0 -205 -65q-92 -82 -92 -260v-465q0 -64 -18 -96q-26 -40 -89 -37v-29q50 0 78.5 -29t28.5 -88v-459q0 -163 102 -251q80 -72 195 -72v27q-59 0 -93 47.5 t-34 138.5z" />
<glyph unicode="|" horiz-adv-x="235" d="M102 1456v-1962h31v1962h-31z" />
<glyph unicode="}" horiz-adv-x="546" d="M209 473v-520q0 -91 -34 -138.5t-93 -47.5v-27q114 0 197 72q100 89 100 251v459q0 59 28.5 88t77.5 29v29q-64 -3 -86 37q-20 31 -20 96v465q0 178 -92 260q-73 65 -205 65v-26q59 0 93 -47.5t34 -141.5v-542q0 -86 39 -133.5t108 -47.5v-2q-70 0 -108.5 -46t-38.5 -132 z" />
<glyph unicode="~" horiz-adv-x="1206" d="M98 319h29q-2 2 -2 13v30q0 49 29 82t77 33q14 0 28.5 -1.5t26.5 -3t29 -5.5t27 -6.5t29.5 -9t27.5 -9t30 -11t28 -11t30 -12t29 -11.5q63 -26 101.5 -40.5t96 -28t107.5 -13.5q124 0 215 84q88 82 88 203q0 60 -16 105h-29v-13q0 -8 2 -14v-16q0 -49 -28.5 -82 t-77.5 -33q-45 0 -100 14.5t-85.5 26t-101.5 41.5q-68 27 -103 40t-94 26.5t-108 13.5q-121 0 -213 -82q-88 -82 -88 -205q0 -60 16 -105z" />
<glyph unicode="&#xa1;" horiz-adv-x="575" d="M274 1079q0 -19 -8 -82q-9 -74 -18 -168q-14 -112 -51 -438q-14 -123 -21 -182q-4 -31 -7 -67t-3 -40q-4 -54 31.5 -92.5t89.5 -38.5t89.5 36.5t33.5 90.5q0 44 -27 312q-31 263 -51 424q-9 73 -21 161q-8 60 -8 84q-2 14 -13 15.5t-16 -15.5zM164 1333q0 -51 36 -87 t87 -36t87 36t36 87t-36 86t-87 35t-87 -35t-36 -86z" />
<glyph unicode="&#xa2;" horiz-adv-x="901" d="M180 195l92 151q83 -51 187 -51q144 0 243 82q75 62 107 147l-21 11q-26 -42 -63 -70q-66 -47 -141 -47q-118 0 -187 131l205 332q30 -15 53 -15q58 0 89.5 38t31.5 100q0 50 -37 100l90 145l-26 17l-86 -142q-77 64 -209 64q-182 0 -303 -115q-133 -123 -133 -336 q0 -125 47.5 -220.5t126.5 -154.5l-92 -151zM578 899l-195 -315q-37 90 -37 202q0 128 53 234q65 131 181 131q38 0 77 -19t60 -42q-63 28 -119 -3q-27 -14 -43 -41t-16 -59q0 -55 39 -88z" />
<glyph unicode="&#xa3;" horiz-adv-x="1050" d="M932 324h-29v-41h-442q7 94 8 123q4 110 4 229h338v27h-338q-1 25 -2 73t-2 72q-2 39 -2 123v100q0 159 61 266q67 117 191 117q50 0 88 -14q73 -29 106 -74q16 -19 19 -25q-25 15 -64 15q-46 0 -83 -32.5t-37 -88.5q0 -50 34.5 -85.5t85.5 -35.5q57 0 89 38.5t32 92.5 q0 101 -86 170q-105 84 -293 84q-198 0 -327 -123q-138 -131 -138 -329q0 -174 91 -344h-175v-27h189q11 -11 31 -47q33 -63 45 -90q58 -128 69 -215h-88q-114 0 -171.5 -42.5t-57.5 -105.5q0 -64 45 -102q36 -33 84 -33q71 0 117 33.5t77 97.5q43 -30 70 -51q48 -37 74 -51 q87 -56 172 -56q94 0 157 86q60 82 60 213v15q-2 6 -2 16v21zM379 150q-30 -57 -68 -90t-98 -33q-53 0 -82 36q-27 30 -27 68q0 39 29.5 67.5t77.5 28.5q84 0 168 -77z" />
<glyph unicode="&#xa5;" horiz-adv-x="1423" d="M209 639h364v-612h-122v-27h571v27h-123v612h350v29h-350v69l55 99h324v28h-307l311 543h111v27h-269v-27h123l-360 -631l-371 631h123v27h-608v-27h110l316 -543h-277v-28h295l98 -168h-364v-29z" />
<glyph unicode="&#xa6;" horiz-adv-x="235" d="M102 1333v-731h31v731h-31zM102 383v-731h31v731h-31z" />
<glyph unicode="&#xa7;" horiz-adv-x="831" d="M424 453l-4 2q-72 41 -109 77.5t-37 83.5q0 63 58 103q32 24 104 37h6q63 -41 95 -77t32 -83q0 -50 -47 -94q-38 -35 -98 -49zM473 426l-2 2q132 25 215 111q84 87 84 209q0 76 -37 131q-65 95 -211 170q-103 55 -119 65q-62 36 -95.5 72t-33.5 80q0 70 74 112 q52 29 119 29q120 0 182 -49q-65 6 -110 -28t-45 -95q0 -54 36.5 -87.5t85.5 -33.5q50 0 86.5 36t36.5 89q0 82 -71 138.5t-191 56.5q-152 0 -264 -72q-131 -84 -131 -221q0 -128 108 -226q12 -10 25 -20.5t24.5 -19t28 -19t26.5 -16.5t29 -17t27 -15t29 -15.5t27 -14.5h-7 q-126 -16 -217 -88q-100 -80 -100 -198q0 -81 37 -136q61 -98 207 -180q39 -21 118 -70q62 -40 93.5 -76.5t31.5 -82.5q0 -68 -73 -113q-59 -39 -131 -39t-134.5 24.5t-97.5 65.5q3 -3 14 -6q16 -4 33 -4q54 0 90.5 37t36.5 88q0 50 -36.5 85.5t-90.5 35.5t-86.5 -37.5 t-32.5 -97.5q0 -87 89 -150q90 -67 217 -67q167 0 284 90q119 92 119 239q0 64 -27 113q-49 92 -165 158q-17 9 -52.5 28.5t-52.5 28.5z" />
<glyph unicode="&#xa8;" horiz-adv-x="663" d="M643 1372q0 60 -40.5 100.5t-100.5 40.5t-101 -40.5t-41 -100.5t41 -100.5t101 -40.5t100.5 40.5t40.5 100.5zM303 1372q0 60 -40.5 100.5t-100.5 40.5t-101 -40.5t-41 -100.5t41 -100.5t101 -40.5t100.5 40.5t40.5 100.5z" />
<glyph unicode="&#xab;" horiz-adv-x="794" d="M412 164l22 22q-46 57 -92 119q-52 67 -135 182q17 24 63 84q12 16 36.5 49t37.5 50q61 78 90 118l-22 23q-92 -73 -168 -135q-12 -9 -64 -51q-11 -10 -30 -26t-25 -21q-36 -28 -43 -35q-22 -16 -31 -27.5t-8 -28.5q0 -18 8.5 -28.5t30.5 -26.5q7 -7 43 -35 q13 -12 55 -45q25 -22 64 -53q76 -61 168 -135zM731 164l23 22q-46 57 -92 119q-66 84 -136 182q7 11 64 84q12 16 37 49t37 50q61 78 90 118l-23 23q-91 -73 -168 -135q-13 -10 -34.5 -27.5t-28.5 -23.5q-11 -10 -30.5 -25.5t-25.5 -21.5q-36 -28 -43 -35 q-22 -16 -31 -27.5t-8 -28.5q0 -18 8.5 -28.5t30.5 -26.5q7 -7 43 -35q3 -2 56 -45q31 -28 63 -53q77 -61 168 -135z" />
<glyph unicode="&#xac;" horiz-adv-x="997" d="M956 291v399h-915v-28h883v-371h32z" />
<glyph unicode="&#xad;" horiz-adv-x="491" d="M61 590v-164h369v164h-369z" />
<glyph unicode="&#xb0;" horiz-adv-x="679" d="M618 1235q0 117 -79 199q-82 79 -199 79q-118 0 -197 -79q-82 -82 -82 -199q0 -118 82 -197q79 -82 197 -82q117 0 199 82q79 79 79 197zM340 1479q100 0 172 -72t72 -172t-72 -172t-172 -72t-172 72t-72 172t72 172t172 72z" />
<glyph unicode="&#xb1;" horiz-adv-x="997" d="M956 551h-442v405h-33v-405h-440v-29h440v-407h33v407h442v29zM956 41v29h-915v-29h915z" />
<glyph unicode="&#xb4;" horiz-adv-x="389" d="M20 1120q20 -20 27 -20l5 5q6 5 16 14.5t22 21.5t42.5 41.5t49.5 48.5q17 16 50.5 48t50.5 48q7 6 18.5 17t16.5 16l13.5 13.5t12 12.5t9 10.5t7.5 10.5t4.5 10t3 10.5t0.5 10.5t-1 12q-6 29 -28 46t-52 17q-12 -1 -20.5 -4t-16.5 -11t-11.5 -13t-12.5 -19.5t-13 -21.5 q-35 -58 -41 -70q-16 -25 -49 -82t-49 -82q-10 -17 -37 -61q-15 -27 -17 -29z" />
<glyph unicode="&#xb7;" horiz-adv-x="395" d="M354 524q0 66 -44.5 112t-110.5 46t-112 -46t-46 -112q0 -63 46 -109t112 -46q65 0 110 45.5t45 109.5z" />
<glyph unicode="&#xb8;" horiz-adv-x="481" d="M184 -115l123 115h-43l-143 -135l18 -21q66 4 110 -43t44 -116q0 -68 -33.5 -107t-91.5 -39q-34 0 -61.5 13.5t-38.5 33.5q-2 -1 -6.5 -3t-6.5 -3q-6 -2 -14 -6q43 -82 174 -82q89 0 154 53q71 54 71 150q0 87 -57 143t-143 56q-35 0 -56 -9z" />
<glyph unicode="&#xbb;" horiz-adv-x="794" d="M360 186l23 -22q68 54 163.5 131.5t125.5 101.5q15 13 30 25.5t23 19.5t10 9q37 37 0 73q-2 2 -10 9t-23 19.5t-30 25.5q-30 24 -125.5 101.5t-163.5 131.5l-23 -23q37 -52 164 -217q57 -73 64 -84q-6 -10 -15 -22.5t-22.5 -31t-22.5 -30.5q-91 -121 -168 -217zM41 186 l22 -22q68 54 163.5 131.5t125.5 101.5q15 13 30 25.5t23.5 19.5t10.5 9q36 37 0 73q-2 2 -10.5 9t-23.5 19.5t-30 25.5q-30 24 -125.5 101.5t-163.5 131.5l-22 -23q37 -52 164 -217q46 -60 63 -84q-6 -9 -59 -84q-91 -121 -168 -217z" />
<glyph unicode="&#xbf;" horiz-adv-x="964" d="M883 240q0 51 -36 86.5t-87 35.5t-87 -35.5t-36 -86.5t36 -87t87 -36q41 0 69 20q-30 -51 -91 -85t-128 -34q-104 0 -164 80q-57 75 -57 181q0 77 23 151q35 102 123 244q33 53 61 117q59 135 27 290h-27q9 -102 -23 -159q-56 -102 -219 -189q-80 -46 -129 -90 q-68 -56 -105.5 -131t-37.5 -184q0 -174 137 -267q124 -86 309 -86q153 0 252 74q103 77 103 191zM707 1311q0 51 -36 87t-87 36t-87 -36t-36 -87t36 -87t87 -36t87 36t36 87z" />
<glyph unicode="&#xc0;" horiz-adv-x="1552" d="M1411 27l-575 1448h-27l-668 -1448h-110v-27h270v27h-123l236 516h444l205 -516h-123v-27h582v27h-111zM651 1063l197 -492h-424zM819 1536q-1 1 -2.5 4.5t-5.5 10.5l-8 14q-27 44 -37 61q-1 2 -96 164q-9 15 -23.5 38.5t-19.5 31.5q-5 7 -13 21.5t-12 20t-11.5 13 t-16 10.5t-19.5 4q-31 0 -53.5 -17t-28.5 -46q-1 -6 -1 -12t0.5 -10.5t3 -10.5t4.5 -10t7.5 -10.5t9 -10.5t12 -12.5l13.5 -13.5t16.5 -16t18.5 -17q17 -16 50 -48t50 -48q18 -18 49 -48t44 -43q12 -12 22 -21.5t16 -14.5l5 -4q6 0 26 20z" />
<glyph unicode="&#xc1;" horiz-adv-x="1552" d="M1411 27l-575 1448h-27l-668 -1448h-110v-27h270v27h-123l236 516h444l205 -516h-123v-27h582v27h-111zM651 1063l197 -492h-424zM831 1536q20 -20 27 -20l6 4q5 5 15 14.5t22 21.5q13 13 43.5 43t48.5 48q17 16 50.5 48t50.5 48q7 6 18.5 17t16.5 16l13.5 13.5t12 12.5 t9 10.5t7.5 10.5t4.5 10t3 10.5t0.5 10.5t-1 12q-6 29 -28 46t-52 17q-12 -1 -20.5 -4t-16.5 -11t-11.5 -13t-12.5 -19.5t-13 -21.5q-35 -58 -41 -70q-16 -25 -49 -82t-49 -82q-10 -17 -37 -61l-8 -14l-6 -10.5t-3 -4.5z" />
<glyph unicode="&#xc2;" horiz-adv-x="1552" d="M1411 27l-575 1448h-27l-668 -1448h-110v-27h270v27h-123l236 516h444l205 -516h-123v-27h582v27h-111zM651 1063l197 -492h-424zM1120 1513l-196 322h-160l-197 -322l31 -22q17 16 49 45t47 43q81 75 82 76q68 62 68 63q24 -23 151 -141q47 -41 95 -86z" />
<glyph unicode="&#xc3;" horiz-adv-x="1552" d="M1411 27l-575 1448h-27l-668 -1448h-110v-27h270v27h-123l236 516h444l205 -516h-123v-27h582v27h-111zM651 1063l197 -492h-424zM541 1556h32q-5 37 11.5 60.5t52.5 23.5q59 0 158 -43t168 -43q73 0 123.5 49t50.5 117q0 35 -9 62h-32q5 -37 -11 -60.5t-53 -23.5 q-63 0 -158 43t-167 43q-74 0 -124.5 -47.5t-50.5 -118.5q0 -32 9 -62z" />
<glyph unicode="&#xc4;" horiz-adv-x="1552" d="M1411 27l-575 1448h-27l-668 -1448h-110v-27h270v27h-123l236 516h444l205 -516h-123v-27h582v27h-111zM651 1063l197 -492h-424zM1145 1677q0 60 -40.5 101t-100.5 41t-101 -41t-41 -101t41 -100.5t101 -40.5t100.5 40.5t40.5 100.5zM805 1677q0 60 -40.5 101t-100.5 41 t-101 -41t-41 -101t41 -100.5t101 -40.5t100.5 40.5t40.5 100.5z" />
<glyph unicode="&#xc5;" horiz-adv-x="1552" d="M1411 27l-575 1448h-27l-668 -1448h-110v-27h270v27h-123l236 516h444l205 -516h-123v-27h582v27h-111zM651 1063l197 -492h-424zM1018 1704q0 85 -56 136.5t-145 51.5q-90 0 -145.5 -53.5t-55.5 -138.5q0 -89 51.5 -143t147.5 -54t149.5 56t53.5 145zM817 1868 q43 0 57 -39q15 -41 15 -123q0 -78 -15 -125q-15 -45 -55 -45q-41 0 -58.5 42.5t-17.5 127.5q0 162 74 162z" />
<glyph unicode="&#xc6;" horiz-adv-x="2031" d="M999 735l-381 2l379 606h2v-608zM598 707h401v-680h-122v-27h1083v395h-29q-11 -220 -131 -303q-94 -63 -297 -63h-180v680h94q107 0 152 -7q105 -10 153.5 -68t53.5 -161h26v469h-26q-8 -89 -58.5 -139t-150.5 -60q-31 -6 -144 -6h-100v668h133q103 0 172 -8t121 -35 q59 -32 93 -94t44 -168h29v334h-1038v-27h122l-862 -1382h-106v-25h252v25h-109z" />
<glyph unicode="&#xc7;" horiz-adv-x="1394" d="M774 -31l-106 -100l18 -21q66 4 110 -43t44 -116q0 -68 -33.5 -107t-91.5 -39q-34 0 -62 13.5t-39 33.5l-26 -12q43 -82 174 -82q88 0 153 53q72 55 72 150q0 87 -57.5 143t-143.5 56q-34 0 -55 -9l86 78q269 0 473 111v409h-28q-17 -227 -99 -344q-108 -147 -321 -147 q-214 0 -310 176q-94 164 -94 504q0 322 80 504q109 260 373 260q174 0 268.5 -96.5t114.5 -307.5h29v322q-182 110 -429 110q-168 0 -313 -52.5t-250 -153.5q-109 -104 -169 -251.5t-60 -328.5q0 -309 190 -502q92 -94 220.5 -149t281.5 -62z" />
<glyph unicode="&#xc8;" horiz-adv-x="1206" d="M51 1434v-27h123v-1380h-123v-27h1084v395h-29q-11 -220 -131 -303q-94 -63 -297 -63h-180v680h94q106 0 151 -7q105 -10 153.5 -68t53.5 -161h27v469h-27q-8 -89 -58.5 -139t-150.5 -60q-31 -6 -143 -6h-100v668h133q103 0 172 -8t121 -35q59 -32 93 -94t44 -168h29v334 h-1039zM711 1536q-1 1 -3 4.5l-6 10.5l-8 14q-27 44 -37 61q-1 2 -96 164q-9 15 -23.5 38.5t-19.5 31.5q-5 7 -13 21.5t-12 20t-11.5 13t-16 10.5t-19.5 4q-31 0 -53 -17t-28 -46q-1 -6 -1 -12t0.5 -10.5t3 -10.5t4.5 -10t7.5 -10.5t9 -10.5t12 -12.5l13.5 -13.5t16.5 -16 t18.5 -17q17 -16 50 -48t50 -48q19 -18 49.5 -48t42.5 -43q12 -12 22 -21.5t15 -14.5l6 -4q7 0 27 20z" />
<glyph unicode="&#xc9;" horiz-adv-x="1206" d="M51 1434v-27h123v-1380h-123v-27h1084v395h-29q-11 -220 -131 -303q-94 -63 -297 -63h-180v680h94q106 0 151 -7q105 -10 153.5 -68t53.5 -161h27v469h-27q-8 -89 -58.5 -139t-150.5 -60q-31 -6 -143 -6h-100v668h133q103 0 172 -8t121 -35q59 -32 93 -94t44 -168h29v334 h-1039zM580 1536q20 -20 26 -20l6 4q5 5 15 14.5t22 21.5q13 13 43.5 43t48.5 48q17 16 50.5 48t50.5 48q7 6 18.5 17t16.5 16l13.5 13.5t12 12.5t9 10.5t7.5 10.5t4.5 10t3 10.5t0.5 10.5t-1 12q-6 29 -28 46t-52 17q-12 -1 -20.5 -4t-16.5 -11t-11.5 -13t-12.5 -19.5 t-13 -21.5q-35 -58 -41 -70q-16 -25 -49 -82t-49 -82q-10 -17 -37 -61l-8 -14t-5.5 -10.5t-2.5 -4.5z" />
<glyph unicode="&#xca;" horiz-adv-x="1206" d="M51 1434v-27h123v-1380h-123v-27h1084v395h-29q-11 -220 -131 -303q-94 -63 -297 -63h-180v680h94q106 0 151 -7q105 -10 153.5 -68t53.5 -161h27v469h-27q-8 -89 -58.5 -139t-150.5 -60q-31 -6 -143 -6h-100v668h133q103 0 172 -8t121 -35q59 -32 93 -94t44 -168h29v334 h-1039zM920 1513l-197 322h-160l-196 -322l30 -22q17 16 49.5 45t47.5 43q68 63 81 76q68 62 68 63q12 -12 152 -141q34 -29 94 -86z" />
<glyph unicode="&#xcb;" horiz-adv-x="1206" d="M51 1434v-27h123v-1380h-123v-27h1084v395h-29q-11 -220 -131 -303q-94 -63 -297 -63h-180v680h94q106 0 151 -7q105 -10 153.5 -68t53.5 -161h27v469h-27q-8 -89 -58.5 -139t-150.5 -60q-31 -6 -143 -6h-100v668h133q103 0 172 -8t121 -35q59 -32 93 -94t44 -168h29v334 h-1039zM895 1677q0 60 -40.5 101t-100.5 41t-101 -41t-41 -101t41 -100.5t101 -40.5t100.5 40.5t40.5 100.5zM555 1677q0 60 -40.5 101t-100.5 41t-101 -41t-41 -101t41 -100.5t101 -40.5t100.5 40.5t40.5 100.5z" />
<glyph unicode="&#xcc;" horiz-adv-x="673" d="M500 27v1380h123v27h-572v-27h123v-1380h-123v-27h572v27h-123zM422 1536q-1 1 -2.5 4.5t-5.5 10.5l-8 14q-27 44 -37 61q-14 23 -97 164q-9 15 -23.5 38.5t-19.5 31.5t-13 21.5t-12 19.5t-11 13.5t-15.5 10.5t-19.5 4q-31 0 -53.5 -17t-28.5 -46q-1 -6 -1 -12t0.5 -10.5 t3 -10.5t4.5 -10t7.5 -10.5t9 -10.5t12 -12.5l13.5 -13.5t16.5 -16t18.5 -17q17 -16 50 -48t50 -48q19 -18 49.5 -48t42.5 -43q12 -12 22 -21.5t16 -14.5l5 -4q7 0 27 20z" />
<glyph unicode="&#xcd;" horiz-adv-x="675" d="M500 27v1380h123v27h-572v-27h123v-1380h-123v-27h572v27h-123zM276 1536q20 -20 27 -20l5 4q6 5 16 14.5t22 21.5q13 13 43.5 43t48.5 48q17 16 50.5 48t50.5 48q7 6 18.5 17t16.5 16l13.5 13.5t12 12.5t9 10.5t7.5 10.5t4.5 10t3 10.5t0.5 10.5t-1 12q-6 29 -28 46 t-52 17q-12 -1 -20.5 -4t-16.5 -11t-11.5 -13t-12.5 -19.5t-13 -21.5q-35 -58 -41 -70q-16 -25 -49 -82t-49 -82q-10 -17 -37 -61l-8 -14l-6 -10.5t-3 -4.5z" />
<glyph unicode="&#xce;" horiz-adv-x="673" d="M500 27v1380h123v27h-572v-27h123v-1380h-123v-27h572v27h-123zM614 1513l-196 322h-160l-197 -322l31 -22q17 16 49 45t47 43q81 75 82 76q68 62 68 63q24 -23 151 -141q47 -41 95 -86z" />
<glyph unicode="&#xcf;" horiz-adv-x="673" d="M500 27v1380h123v27h-572v-27h123v-1380h-123v-27h572v27h-123zM649 1677q0 60 -40.5 101t-100.5 41t-100.5 -41t-40.5 -101t40.5 -100.5t100.5 -40.5t100.5 40.5t40.5 100.5zM309 1677q0 60 -40.5 101t-100.5 41t-100.5 -41t-40.5 -101t40.5 -100.5t100.5 -40.5 t100.5 40.5t40.5 100.5z" />
<glyph unicode="&#xd0;" horiz-adv-x="1499" d="M51 1434v-27h123v-659h-123v-29h123v-692h-123v-27h287q82 0 168 -4t119 -4q368 0 573 176q229 194 229 573q0 336 -245 527q-110 85 -258.5 128.5t-313.5 43.5q-44 0 -71 -2q-54 -4 -119 -4h-369zM498 25v694h311v29h-311v659q130 8 229 -13.5t170 -88.5 q164 -158 164 -586q0 -417 -154 -580q-132 -140 -409 -114z" />
<glyph unicode="&#xd1;" horiz-adv-x="1347" d="M72 1434h520l528 -840h2v813h-123v27h277v-27h-123v-1434h-31l-895 1428h-2v-1374h123v-27h-276v27h123v1380h-123v27zM391 1556h33q-5 37 11.5 60.5t51.5 23.5q59 0 158 -43t168 -43q73 0 123.5 49t50.5 117q0 38 -8 62h-33q5 -37 -10.5 -60.5t-52.5 -23.5 q-63 0 -158 43t-168 43q-74 0 -124 -47t-50 -119q0 -35 8 -62z" />
<glyph unicode="&#xd2;" d="M82 692q0 -332 205 -524q99 -95 236.5 -146t301.5 -51q156 0 298.5 46.5t250.5 136.5q244 204 244 559q0 334 -191 540q-204 220 -557 220q-340 0 -557 -199q-231 -212 -231 -582zM1255 686q0 -178 -24 -311q-31 -170 -115 -264q-100 -111 -270 -111q-206 0 -307 186 q-97 178 -97 500q0 178 23 322q26 187 113 303q101 133 274 133q221 0 319 -221q84 -189 84 -537zM920 1536q-1 1 -3 4.5l-6 10.5l-8 14q-27 44 -37 61q-1 2 -96 164q-9 15 -23.5 38.5t-19.5 31.5q-5 7 -13 21.5t-12 20t-11.5 13t-16 10.5t-19.5 4q-31 0 -53.5 -17 t-28.5 -46q-1 -6 -1 -12t0.5 -10.5t3 -10.5t4.5 -10t7.5 -10.5t9 -10.5t12 -12.5l13.5 -13.5t16.5 -16t18.5 -17q17 -16 50.5 -48t50.5 -48q18 -18 49 -48t43 -43q12 -12 22 -21.5t16 -14.5l5 -4q7 0 27 20z" />
<glyph unicode="&#xd3;" d="M82 692q0 -332 205 -524q99 -95 236.5 -146t301.5 -51q156 0 298.5 46.5t250.5 136.5q244 204 244 559q0 334 -191 540q-204 220 -557 220q-340 0 -557 -199q-231 -212 -231 -582zM1255 686q0 -178 -24 -311q-31 -170 -115 -264q-100 -111 -270 -111q-206 0 -307 186 q-97 178 -97 500q0 178 23 322q26 187 113 303q101 133 274 133q221 0 319 -221q84 -189 84 -537zM813 1536q20 -20 27 -20l6 4q5 5 15 14.5t22 21.5q13 13 43.5 43t48.5 48q17 16 50 48t50 48q7 6 18.5 17t16.5 16l13.5 13.5t12 12.5t9 10.5t7.5 10.5t4.5 10t3 10.5 t0.5 10.5t-1 12q-6 29 -28 46t-52 17q-15 -1 -26.5 -8t-15.5 -11t-16 -24.5t-15 -25.5q-35 -58 -41 -70q-16 -25 -49.5 -81.5t-49.5 -82.5q-10 -17 -37 -61l-8 -14t-5.5 -10.5t-2.5 -4.5z" />
<glyph unicode="&#xd4;" d="M82 692q0 -332 205 -524q99 -95 236.5 -146t301.5 -51q156 0 298.5 46.5t250.5 136.5q244 204 244 559q0 334 -191 540q-204 220 -557 220q-340 0 -557 -199q-231 -212 -231 -582zM1255 686q0 -178 -24 -311q-31 -170 -115 -264q-100 -111 -270 -111q-206 0 -307 186 q-97 178 -97 500q0 178 23 322q26 187 113 303q101 133 274 133q221 0 319 -221q84 -189 84 -537zM1143 1513l-197 322h-160l-196 -322l31 -22q17 16 49 45t47 43q81 75 82 76q54 50 67 63q12 -12 152 -141q34 -29 94 -86z" />
<glyph unicode="&#xd5;" d="M82 692q0 -332 205 -524q99 -95 236.5 -146t301.5 -51q156 0 298.5 46.5t250.5 136.5q244 204 244 559q0 334 -191 540q-204 220 -557 220q-340 0 -557 -199q-231 -212 -231 -582zM1255 686q0 -178 -24 -311q-31 -170 -115 -264q-100 -111 -270 -111q-206 0 -307 186 q-97 178 -97 500q0 178 23 322q26 187 113 303q101 133 274 133q221 0 319 -221q84 -189 84 -537zM600 1556h33q-5 37 11.5 60.5t51.5 23.5q59 0 158 -43t168 -43q73 0 123.5 49t50.5 117q0 38 -8 62h-33q5 -37 -10.5 -60.5t-52.5 -23.5q-63 0 -158 43t-168 43 q-74 0 -124 -47t-50 -119q0 -35 8 -62z" />
<glyph unicode="&#xd6;" d="M82 692q0 -332 205 -524q99 -95 236.5 -146t301.5 -51q156 0 298.5 46.5t250.5 136.5q244 204 244 559q0 334 -191 540q-204 220 -557 220q-340 0 -557 -199q-231 -212 -231 -582zM1255 686q0 -178 -24 -311q-31 -170 -115 -264q-100 -111 -270 -111q-206 0 -307 186 q-97 178 -97 500q0 178 23 322q26 187 113 303q101 133 274 133q221 0 319 -221q84 -189 84 -537zM1196 1677q0 60 -40.5 101t-100.5 41t-101 -41t-41 -101t41 -100.5t101 -40.5t100.5 40.5t40.5 100.5zM856 1677q0 60 -40.5 101t-100.5 41t-101 -41t-41 -101t41 -100.5 t101 -40.5t100.5 40.5t40.5 100.5z" />
<glyph unicode="&#xd7;" horiz-adv-x="770" d="M719 182l-313 316l313 311l-21 20l-313 -311l-313 311l-21 -20l314 -311l-314 -316l21 -20l313 315l315 -315z" />
<glyph unicode="&#xd8;" d="M1413 1268l125 125l-20 20l-127 -125q-201 185 -521 185q-340 0 -557 -199q-231 -212 -231 -582q0 -322 194 -516l-129 -127l21 -20l129 129q199 -187 528 -187q156 0 298.5 46.5t250.5 136.5q244 204 244 559q0 347 -205 555zM1210 1108l-739 -735q-29 148 -29 313 q0 178 23 322q26 187 113 303q101 133 274 133q140 0 233 -90q81 -84 125 -246zM479 340l740 735q36 -153 36 -389q0 -178 -24 -311q-31 -170 -115 -264q-100 -111 -270 -111q-280 0 -367 340z" />
<glyph unicode="&#xd9;" horiz-adv-x="1415" d="M51 1434v-27h123v-700q0 -238 23 -363q32 -177 149 -266q137 -105 402 -105q255 0 389 174q72 92 98.5 198t26.5 263v799h122v27h-276v-27h123v-846q0 -247 -115 -397q-125 -162 -358 -162q-166 0 -221 176q-15 49 -23 123t-9 126.5t-1 150.5v829h123v27h-576zM877 1536 q-1 1 -3 4.5l-6 10.5l-8 14q-27 44 -37 61q-1 2 -96 164q-9 15 -23.5 38.5t-19.5 31.5q-5 7 -13 21.5t-12 20t-11.5 13t-16 10.5t-19.5 4q-31 0 -53.5 -17t-28.5 -46q-1 -6 -1 -12t0.5 -10.5t3 -10.5t4.5 -10t7.5 -10.5t9 -10.5t12 -12.5l13.5 -13.5t16.5 -16t18.5 -17 q17 -16 50.5 -48t50.5 -48q19 -18 49.5 -48t42.5 -43q12 -12 22 -21.5t15 -14.5l6 -4q7 0 27 20z" />
<glyph unicode="&#xda;" horiz-adv-x="1415" d="M51 1434v-27h123v-700q0 -238 23 -363q32 -177 149 -266q137 -105 402 -105q255 0 389 174q72 92 98.5 198t26.5 263v799h122v27h-276v-27h123v-846q0 -247 -115 -397q-125 -162 -358 -162q-166 0 -221 176q-15 49 -23 123t-9 126.5t-1 150.5v829h123v27h-576zM678 1536 q20 -20 27 -20l5 4q6 5 16 14.5t22 21.5q13 13 43.5 43t48.5 48q17 16 50 48t50 48q7 6 18.5 17t16.5 16l13.5 13.5t12 12.5t9 10.5t7.5 10.5t4.5 10t3 10.5t0.5 10.5t-1 12q-6 29 -28 46t-52 17q-12 -1 -20.5 -4t-16.5 -11t-11.5 -13t-12.5 -19.5t-13 -21.5 q-35 -58 -41 -70q-16 -25 -49 -82t-49 -82q-10 -17 -37 -61l-8 -14t-5.5 -10.5t-2.5 -4.5z" />
<glyph unicode="&#xdb;" horiz-adv-x="1415" d="M51 1434v-27h123v-700q0 -238 23 -363q32 -177 149 -266q137 -105 402 -105q255 0 389 174q72 92 98.5 198t26.5 263v799h122v27h-276v-27h123v-846q0 -247 -115 -397q-125 -162 -358 -162q-166 0 -221 176q-15 49 -23 123t-9 126.5t-1 150.5v829h123v27h-576zM1075 1513 l-196 322h-160l-197 -322l31 -22q17 16 49 45t47 43q81 75 82 76q68 62 68 63q24 -23 151 -141q34 -29 94 -86z" />
<glyph unicode="&#xdc;" horiz-adv-x="1415" d="M51 1434v-27h123v-700q0 -238 23 -363q32 -177 149 -266q137 -105 402 -105q255 0 389 174q72 92 98.5 198t26.5 263v799h122v27h-276v-27h123v-846q0 -247 -115 -397q-125 -162 -358 -162q-166 0 -221 176q-15 49 -23 123t-9 126.5t-1 150.5v829h123v27h-576zM1079 1677 q0 60 -40.5 101t-100.5 41t-100.5 -41t-40.5 -101t40.5 -100.5t100.5 -40.5t100.5 40.5t40.5 100.5zM739 1677q0 60 -40.5 101t-100.5 41t-100.5 -41t-40.5 -101t40.5 -100.5t100.5 -40.5t100.5 40.5t40.5 100.5z" />
<glyph unicode="&#xdd;" horiz-adv-x="1402" d="M1382 1407v27h-268v-27h123l-360 -631l-371 631h123v27h-609v-27h111l432 -739v-641h-123v-27h572v27h-123v710l383 670h110zM692 1536q20 -20 27 -20l5 4q6 5 16 14.5t22 21.5q13 13 43.5 43t48.5 48q17 16 50 48t50 48q7 6 18.5 17t16.5 16l13.5 13.5t12 12.5t9 10.5 t7.5 10.5t4.5 10t3 10.5t0.5 10.5t-1 12q-6 29 -28 46t-52 17q-15 -1 -26.5 -8t-15.5 -11t-16 -24.5t-15 -25.5q-35 -58 -41 -70q-16 -25 -49.5 -81.5t-49.5 -82.5q-18 -33 -36 -61l-8 -14l-6 -10.5t-3 -4.5z" />
<glyph unicode="&#xde;" horiz-adv-x="1284" d="M625 0v27h-123v282q103 -28 200 -28q212 0 351 116q159 133 159 377q0 228 -178 348q-147 99 -350 99q-103 0 -182 -29v213h123v29h-574v-29h123v-1378h-123v-27h574zM502 338v825q43 11 86 11q125 0 205 -95q86 -107 86 -307q0 -199 -64 -313q-72 -131 -223 -131 q-49 0 -90 10z" />
<glyph unicode="&#xdf;" horiz-adv-x="1290" d="M1036 166q0 -63 -59 -115q-55 -45 -117 -49q-79 -6 -150.5 17.5t-109.5 70.5q4 -4 24.5 -8t28.5 -2q54 4 87.5 39t33.5 86q0 50 -36.5 85.5t-90.5 35.5t-88.5 -39.5t-30.5 -96.5q3 -94 99 -157q96 -67 237 -58q158 10 262 93q122 97 111 258q-8 103 -78 186 q-46 54 -162 131q-98 58 -155 115q-68 68 -68 131q0 32 19 66t35.5 52t57.5 57q2 3 3.5 4t3.5 3l4 4q58 56 89.5 104t31.5 109q0 119 -98 189q-85 61 -205 61q-176 0 -287 -44t-172 -132q-58 -81 -80 -203t-22 -301v-831h-123v-27h485v29h-70v923q0 131 13 240 q18 144 71 221q68 98 185 98q97 0 151 -71q49 -64 49 -162q0 -72 -20 -119q-34 -77 -125 -168q-24 -24 -70 -78q-75 -99 -75 -223q0 -64 30 -117q59 -98 176 -172q74 -53 99 -73q51 -42 78.5 -80.5t27.5 -81.5z" />
<glyph unicode="&#xe0;" horiz-adv-x="1021" d="M244 868q30 36 77 59t95 23q63 0 100 -37q43 -46 43 -153v-223q-234 -23 -364 -91q-154 -80 -154 -217q0 -126 94 -194q83 -60 217 -60q70 0 133.5 28t100.5 71q63 -99 192 -99q92 0 148 45q40 30 45 62l-27 10q-14 -41 -49 -41q-29 0 -35 29q-8 24 -8 84v444 q0 205 -92 297q-86 86 -260 86q-172 0 -260 -88q-70 -67 -70 -145q0 -50 35 -85.5t84 -35.5t85 35.5t36 85.5q0 49 -35.5 84t-85.5 35q-24 0 -45 -9zM453 35q-61 0 -88 59q-29 56 -29 131q0 108 57 183.5t166 99.5v-260q0 -92 14 -146q-13 -21 -52 -44t-68 -23zM530 1081 q-1 1 -2.5 4t-5.5 10.5t-8 14.5q-27 44 -37 61q-1 2 -96 164q-9 15 -23.5 38.5t-19.5 31.5q-3 5 -15 25.5t-16.5 25t-15.5 11.5t-25 8q-31 0 -53.5 -17.5t-28.5 -46.5q-1 -6 -1 -12t0.5 -10.5t3 -10.5t4.5 -10t7.5 -10.5t9 -10.5t12 -12.5l13.5 -13.5t16.5 -16t18.5 -17 q17 -16 50.5 -48t50.5 -48q19 -18 49.5 -47.5t42.5 -42.5q12 -12 22 -21.5t15 -14.5l6 -5q6 0 26 20z" />
<glyph unicode="&#xe1;" horiz-adv-x="1021" d="M244 868q30 36 77 59t95 23q63 0 100 -37q43 -46 43 -153v-223q-234 -23 -364 -91q-154 -80 -154 -217q0 -126 94 -194q83 -60 217 -60q70 0 133.5 28t100.5 71q63 -99 192 -99q92 0 148 45q40 30 45 62l-27 10q-14 -41 -49 -41q-29 0 -35 29q-8 24 -8 84v444 q0 205 -92 297q-86 86 -260 86q-172 0 -260 -88q-70 -67 -70 -145q0 -50 35 -85.5t84 -35.5t85 35.5t36 85.5q0 49 -35.5 84t-85.5 35q-24 0 -45 -9zM453 35q-61 0 -88 59q-29 56 -29 131q0 108 57 183.5t166 99.5v-260q0 -92 14 -146q-13 -21 -52 -44t-68 -23zM453 1081 q20 -20 26 -20l5 5q6 5 16 14.5t22 21.5q13 13 43.5 42.5t48.5 47.5q17 16 50.5 48t50.5 48q7 6 18.5 17t16.5 16l13.5 13.5t12 12.5t9 10.5t7.5 10.5t4.5 10t3 10.5t0.5 10.5t-1 12q-6 29 -28 46.5t-52 17.5q-12 -1 -20.5 -4t-16 -11t-12 -13.5t-12.5 -20t-13 -21.5 q-35 -58 -41 -70q-16 -25 -49 -82t-49 -82q-10 -17 -37 -61q-4 -7 -8 -14.5t-5.5 -10.5t-2.5 -4z" />
<glyph unicode="&#xe2;" horiz-adv-x="1021" d="M244 868q30 36 77 59t95 23q63 0 100 -37q43 -46 43 -153v-223q-234 -23 -364 -91q-154 -80 -154 -217q0 -126 94 -194q83 -60 217 -60q70 0 133.5 28t100.5 71q63 -99 192 -99q92 0 148 45q40 30 45 62l-27 10q-14 -41 -49 -41q-29 0 -35 29q-8 24 -8 84v444 q0 205 -92 297q-86 86 -260 86q-172 0 -260 -88q-70 -67 -70 -145q0 -50 35 -85.5t84 -35.5t85 35.5t36 85.5q0 49 -35.5 84t-85.5 35q-24 0 -45 -9zM453 35q-61 0 -88 59q-29 56 -29 131q0 108 57 183.5t166 99.5v-260q0 -92 14 -146q-13 -21 -52 -44t-68 -23zM756 1085 l-197 322h-160l-196 -322l30 -22q17 16 49.5 45t47.5 43q81 75 82 76q54 50 67 63q12 -12 152 -141q34 -29 94 -86z" />
<glyph unicode="&#xe3;" horiz-adv-x="1021" d="M244 868q30 36 77 59t95 23q63 0 100 -37q43 -46 43 -153v-223q-234 -23 -364 -91q-154 -80 -154 -217q0 -126 94 -194q83 -60 217 -60q70 0 133.5 28t100.5 71q63 -99 192 -99q92 0 148 45q40 30 45 62l-27 10q-14 -41 -49 -41q-29 0 -35 29q-8 24 -8 84v444 q0 205 -92 297q-86 86 -260 86q-172 0 -260 -88q-70 -67 -70 -145q0 -50 35 -85.5t84 -35.5t85 35.5t36 85.5q0 49 -35.5 84t-85.5 35q-24 0 -45 -9zM453 35q-61 0 -88 59q-29 56 -29 131q0 108 57 183.5t166 99.5v-260q0 -92 14 -146q-13 -21 -52 -44t-68 -23zM197 1124h32 q-5 37 11.5 60.5t52.5 23.5q59 0 158 -43t167 -43q73 0 124 49t51 117q0 35 -9 62h-32q5 -37 -11 -60.5t-53 -23.5q-63 0 -158 43t-168 43q-74 0 -124 -47t-50 -119q0 -32 9 -62z" />
<glyph unicode="&#xe4;" horiz-adv-x="1021" d="M244 868q30 36 77 59t95 23q63 0 100 -37q43 -46 43 -153v-223q-234 -23 -364 -91q-154 -80 -154 -217q0 -126 94 -194q83 -60 217 -60q70 0 133.5 28t100.5 71q63 -99 192 -99q92 0 148 45q40 30 45 62l-27 10q-14 -41 -49 -41q-29 0 -35 29q-8 24 -8 84v444 q0 205 -92 297q-86 86 -260 86q-172 0 -260 -88q-70 -67 -70 -145q0 -50 35 -85.5t84 -35.5t85 35.5t36 85.5q0 49 -35.5 84t-85.5 35q-24 0 -45 -9zM453 35q-61 0 -88 59q-29 56 -29 131q0 108 57 183.5t166 99.5v-260q0 -92 14 -146q-13 -21 -52 -44t-68 -23zM791 1235 q0 60 -41 100.5t-101 40.5t-100.5 -40.5t-40.5 -100.5t40.5 -100.5t100.5 -40.5t101 40.5t41 100.5zM451 1235q0 60 -41 100.5t-101 40.5t-100.5 -40.5t-40.5 -100.5t40.5 -100.5t100.5 -40.5t101 40.5t41 100.5z" />
<glyph unicode="&#xe5;" horiz-adv-x="1021" d="M244 868q30 36 77 59t95 23q63 0 100 -37q43 -46 43 -153v-223q-234 -23 -364 -91q-154 -80 -154 -217q0 -126 94 -194q83 -60 217 -60q70 0 133.5 28t100.5 71q63 -99 192 -99q92 0 148 45q40 30 45 62l-27 10q-14 -41 -49 -41q-29 0 -35 29q-8 24 -8 84v444 q0 205 -92 297q-86 86 -260 86q-172 0 -260 -88q-70 -67 -70 -145q0 -50 35 -85.5t84 -35.5t85 35.5t36 85.5q0 49 -35.5 84t-85.5 35q-24 0 -45 -9zM453 35q-61 0 -88 59q-29 56 -29 131q0 108 57 183.5t166 99.5v-260q0 -92 14 -146q-13 -21 -52 -44t-68 -23zM696 1274 q0 85 -55.5 136.5t-144.5 51.5q-90 0 -145.5 -53.5t-55.5 -138.5q0 -89 51.5 -143t147.5 -54t149 56t53 145zM496 1438q43 0 57 -39q14 -38 14 -123q0 -82 -14 -125q-15 -45 -55 -45q-41 0 -58.5 42.5t-17.5 127.5q0 162 74 162z" />
<glyph unicode="&#xe6;" horiz-adv-x="1425" d="M754 903l-2 2q-86 86 -263 86q-172 0 -260 -88q-69 -66 -69 -145q0 -50 35 -85.5t84 -35.5t84.5 35.5t35.5 85.5q0 49 -35 84t-85 35q-25 0 -46 -9q30 36 77.5 59t95.5 23q63 0 100 -37q43 -46 43 -153v-223q-235 -23 -365 -91q-153 -80 -153 -217q0 -126 94 -194 q83 -60 217 -60q205 0 330 136q120 -140 299 -140q155 0 262 86q89 71 117 158l-25 14q-20 -32 -70 -65q-59 -39 -141 -39q-126 0 -194 133q-56 104 -60 248q229 12 330 47q164 56 164 188q0 121 -113 191q-96 55 -225 55q-149 0 -262 -84zM653 131q-29 -42 -80 -68 q-62 -32 -118 -24q-65 10 -97 60t-32 126q0 108 57 183.5t166 99.5l2 -39q0 -181 102 -338zM1106 778q0 -127 -55.5 -181t-192.5 -65q3 208 55 326q46 103 99 103q37 0 65.5 -52t28.5 -131z" />
<glyph unicode="&#xe7;" horiz-adv-x="972" d="M436 -16l-110 -105l18 -20q66 4 110 -43.5t44 -116.5q0 -68 -33.5 -106.5t-91.5 -38.5q-34 0 -62 13.5t-39 33.5l-26 -13q43 -82 174 -82q87 0 153 54q72 55 72 149q0 87 -57.5 143t-143.5 56q-36 0 -55 -8l84 77q2 -2 12 -2h27q158 0 276 95q92 74 123 168l-24 12 q-26 -42 -72 -78q-70 -55 -160 -55q-139 0 -211 147q-61 116 -61 271q0 147 61 266q73 149 205 149q44 0 88.5 -21.5t67.5 -47.5q-64 28 -117 -4q-25 -15 -40 -42.5t-15 -58.5q0 -51 35 -87t86 -36q53 0 85.5 37t32.5 92q0 89 -77 148q-80 61 -226 61q-208 0 -346 -129 q-151 -141 -151 -383q0 -207 110 -340q102 -127 254 -155z" />
<glyph unicode="&#xe8;" horiz-adv-x="948" d="M872 219l-24 14q-20 -32 -70 -65q-59 -39 -141 -39q-127 0 -195 133q-55 102 -59 248q229 12 330 47q164 56 164 188q0 121 -113 191q-96 55 -225 55q-99 0 -185.5 -39t-148.5 -110q-133 -149 -133 -369q0 -202 106 -340q121 -158 316 -158q155 0 262 86q87 70 116 158z M629 782q0 -127 -55.5 -180.5t-192.5 -64.5q3 207 55 325q46 103 99 103q37 0 65.5 -52t28.5 -131zM612 1081q-1 1 -2.5 4t-5.5 10.5t-8 14.5q-27 44 -37 61q-1 2 -96 164q-9 15 -23.5 38.5t-19.5 31.5q-3 5 -15 25.5t-16.5 25t-15.5 11.5t-25 8q-31 0 -53.5 -17.5 t-28.5 -46.5q-1 -6 -1 -12t0.5 -10.5t3 -10.5t4.5 -10t7.5 -10.5t9 -10.5t12 -12.5l13.5 -13.5t16.5 -16t18.5 -17q17 -16 50.5 -48t50.5 -48q18 -18 48.5 -47.5t43.5 -42.5q12 -12 22 -21.5t15 -14.5l6 -5q6 0 26 20z" />
<glyph unicode="&#xe9;" horiz-adv-x="1599" d="M872 219l-24 14q-20 -32 -70 -65q-59 -39 -141 -39q-127 0 -195 133q-55 102 -59 248q229 12 330 47q164 56 164 188q0 121 -113 191q-96 55 -225 55q-99 0 -185.5 -39t-148.5 -110q-133 -149 -133 -369q0 -202 106 -340q121 -158 316 -158q155 0 262 86q87 70 116 158z M629 782q0 -127 -55.5 -180.5t-192.5 -64.5q3 207 55 325q46 103 99 103q37 0 65.5 -52t28.5 -131zM412 1081q20 -20 26 -20l6 5q5 5 15 14.5t22 21.5q13 13 43.5 42.5t48.5 47.5q17 16 50.5 48t50.5 48q7 6 18.5 17t16.5 16l13.5 13.5t12 12.5t9 10.5t7.5 10.5t4.5 10 t3 10.5t0.5 10.5t-1 12q-6 29 -28 46.5t-52 17.5q-12 -1 -20.5 -4t-16 -11t-12 -13.5t-12.5 -20t-13 -21.5q-35 -58 -41 -70q-16 -25 -49 -82t-49 -82q-10 -17 -37 -61q-4 -7 -8 -14.5t-5.5 -10.5t-2.5 -4z" />
<glyph unicode="&#xea;" horiz-adv-x="948" d="M872 219l-24 14q-20 -32 -70 -65q-59 -39 -141 -39q-127 0 -195 133q-55 102 -59 248q229 12 330 47q164 56 164 188q0 121 -113 191q-96 55 -225 55q-99 0 -185.5 -39t-148.5 -110q-133 -149 -133 -369q0 -202 106 -340q121 -158 316 -158q155 0 262 86q87 70 116 158z M629 782q0 -127 -55.5 -180.5t-192.5 -64.5q3 207 55 325q46 103 99 103q37 0 65.5 -52t28.5 -131zM797 1085l-197 322h-160l-196 -322l30 -22q17 16 49.5 45t47.5 43q81 75 82 76q54 50 67 63q12 -12 152 -141q34 -29 94 -86z" />
<glyph unicode="&#xeb;" horiz-adv-x="948" d="M872 219l-24 14q-20 -32 -70 -65q-59 -39 -141 -39q-127 0 -195 133q-55 102 -59 248q229 12 330 47q164 56 164 188q0 121 -113 191q-96 55 -225 55q-99 0 -185.5 -39t-148.5 -110q-133 -149 -133 -369q0 -202 106 -340q121 -158 316 -158q155 0 262 86q87 70 116 158z M629 782q0 -127 -55.5 -180.5t-192.5 -64.5q3 207 55 325q46 103 99 103q37 0 65.5 -52t28.5 -131zM811 1235q0 60 -40.5 100.5t-100.5 40.5t-101 -40.5t-41 -100.5t41 -100.5t101 -40.5t100.5 40.5t40.5 100.5zM471 1235q0 60 -40.5 100.5t-100.5 40.5t-101 -40.5 t-41 -100.5t41 -100.5t101 -40.5t100.5 40.5t40.5 100.5z" />
<glyph unicode="&#xec;" horiz-adv-x="641" d="M174 940h-123v27h416v-940h123v-27h-539v27h123v913zM420 1081q-2 2 -17 29q-18 28 -36 61q-14 23 -97 164q-9 15 -23.5 38.5t-19.5 31.5q-4 7 -15 26t-15.5 24.5t-15.5 12t-25 7.5q-31 0 -53.5 -17.5t-28.5 -46.5q-1 -6 -1 -12t0.5 -10.5t3 -10.5t4.5 -10t7.5 -10.5 t9 -10.5t12 -12.5l13.5 -13.5t16.5 -16t18.5 -17q17 -16 50 -48t50 -48q19 -18 49.5 -47.5t42.5 -42.5q12 -12 22 -21.5t16 -14.5l5 -5q7 0 27 20z" />
<glyph unicode="&#xed;" horiz-adv-x="641" d="M51 940h123v-913h-123v-27h539v27h-123v940h-416v-27zM186 1081q20 -20 27 -20l5 5q6 5 16 14.5t22 21.5q12 13 42.5 42.5t49.5 47.5q17 16 50.5 48t50.5 48q63 60 73 75q15 22 10 48q-6 29 -28 46.5t-51 17.5q-12 -1 -20.5 -4t-16 -11t-12 -13.5t-12.5 -20t-13 -21.5 q-35 -58 -41 -70q-16 -25 -49 -82t-49 -82q-10 -17 -37 -61q-15 -27 -17 -29z" />
<glyph unicode="&#xee;" horiz-adv-x="641" d="M174 940h-123v27h416v-940h123v-27h-539v27h123v913zM571 1085l-196 322h-160l-197 -322l31 -22q17 16 49 45t47 43q81 75 82 76q67 62 68 63q23 -23 151 -141q47 -41 95 -86z" />
<glyph unicode="&#xef;" horiz-adv-x="647" d="M180 940h-123v27h416v-940h123v-27h-539v27h123v913zM612 1235q0 60 -40.5 100.5t-100.5 40.5t-100.5 -40.5t-40.5 -100.5t40.5 -100.5t100.5 -40.5t100.5 40.5t40.5 100.5zM272 1235q0 60 -40.5 100.5t-100.5 40.5t-100.5 -40.5t-40.5 -100.5t40.5 -100.5t100.5 -40.5 t100.5 40.5t40.5 100.5z" />
<glyph unicode="&#xf0;" horiz-adv-x="1146" d="M719 1343l201 111l-17 27l-211 -119q-206 151 -473 151v-28q163 -51 295 -221l-262 -146l16 -26l264 147q98 -130 160 -305q-76 55 -200 55q-57 0 -127.5 -26.5t-131.5 -81.5q-161 -143 -161 -402q0 -215 125 -352q139 -152 376 -152q271 0 396 181q106 154 106 438 q0 216 -92 414q-96 204 -264 335zM391 481q0 178 66 310q66 129 170 129q47 0 80 -33q18 -70 28 -152q15 -127 15 -217q0 -186 -25 -309q-42 -207 -154 -207q-75 0 -120 96q-36 76 -50 203q-10 90 -10 180z" />
<glyph unicode="&#xf1;" horiz-adv-x="1236" d="M174 27v913h-123v27h406q0 -51 4 -105v-22q57 57 125 94q90 49 184 49q144 0 218.5 -80t74.5 -239v-637h123v-27h-527v27h111v610q0 130 -28.5 190t-114.5 60q-45 0 -101 -33q-38 -25 -59 -55v-772h111v-27h-527v27h123zM299 1124h33q-5 37 11.5 60.5t51.5 23.5 q59 0 158 -43t168 -43q73 0 123.5 49t50.5 117q0 38 -8 62h-33q5 -37 -10.5 -60.5t-52.5 -23.5q-63 0 -158 43t-168 43q-74 0 -124 -47t-50 -119q0 -35 8 -62z" />
<glyph unicode="&#xf2;" horiz-adv-x="1157" d="M1085 502q0 223 -139 356t-366 133q-229 0 -369 -143q-139 -139 -139 -361q0 -231 123 -366q133 -146 374 -146q246 0 387 154q129 141 129 373zM578 963q101 0 145 -121q41 -125 41 -334q0 -235 -39 -356q-47 -148 -143 -148q-102 0 -152 146q-41 119 -41 358 q0 217 49 336q46 119 140 119zM674 1081q-2 2 -17 29q-18 28 -36 61q-14 23 -97 164q-9 15 -23.5 38.5t-19.5 31.5q-4 7 -15 26t-15.5 24.5t-15.5 12t-25 7.5q-31 0 -53.5 -17.5t-28.5 -46.5q-1 -6 -1 -12t0.5 -10.5t3 -10.5t4.5 -10t7.5 -10.5t9 -10.5t12 -12.5l13.5 -13.5 t16.5 -16t18.5 -17q17 -16 50 -48t50 -48q18 -18 48.5 -47.5t43.5 -42.5q12 -12 22 -21.5t16 -14.5l5 -5q7 0 27 20z" />
<glyph unicode="&#xf3;" horiz-adv-x="1157" d="M1085 502q0 223 -139 356t-366 133q-229 0 -369 -143q-139 -139 -139 -361q0 -231 123 -366q133 -146 374 -146q246 0 387 154q129 141 129 373zM578 963q101 0 145 -121q41 -125 41 -334q0 -235 -39 -356q-47 -148 -143 -148q-102 0 -152 146q-41 119 -41 358 q0 217 49 336q46 119 140 119zM514 1081q20 -20 27 -20l5 5q6 5 16 14.5t22 21.5q12 13 42.5 42.5t49.5 47.5q17 16 50 48t50 48q7 6 18.5 17t16.5 16l13.5 13.5t12 12.5t9 10.5t7.5 10.5t4.5 10t3 10.5t0.5 10.5t-1 12q-6 29 -28 46.5t-52 17.5q-15 -1 -26 -8t-15.5 -12 t-16 -24.5t-15.5 -25.5q-35 -58 -41 -70q-16 -25 -49.5 -81.5t-49.5 -82.5q-10 -17 -37 -61q-4 -7 -8 -14.5t-5.5 -10.5t-2.5 -4z" />
<glyph unicode="&#xf4;" horiz-adv-x="1157" d="M1085 502q0 223 -139 356t-366 133q-229 0 -369 -143q-139 -139 -139 -361q0 -231 123 -366q133 -146 374 -146q246 0 387 154q129 141 129 373zM578 963q101 0 145 -121q41 -125 41 -334q0 -235 -39 -356q-47 -148 -143 -148q-102 0 -152 146q-41 119 -41 358 q0 217 49 336q46 119 140 119zM838 1085l-197 322h-160l-196 -322l30 -22q17 16 49.5 45t47.5 43q81 75 82 76q54 50 67 63q12 -12 152 -141q34 -29 94 -86z" />
<glyph unicode="&#xf5;" horiz-adv-x="1157" d="M1085 502q0 223 -139 356t-366 133q-229 0 -369 -143q-139 -139 -139 -361q0 -231 123 -366q133 -146 374 -146q246 0 387 154q129 141 129 373zM578 963q101 0 145 -121q41 -125 41 -334q0 -235 -39 -356q-47 -148 -143 -148q-102 0 -152 146q-41 119 -41 358 q0 217 49 336q46 119 140 119zM299 1124h33q-5 37 11.5 60.5t51.5 23.5q59 0 158 -43t168 -43q73 0 123.5 49t50.5 117q0 38 -8 62h-33q5 -37 -10.5 -60.5t-52.5 -23.5q-63 0 -158 43t-168 43q-74 0 -124 -47t-50 -119q0 -35 8 -62z" />
<glyph unicode="&#xf6;" horiz-adv-x="1157" d="M1085 502q0 223 -139 356t-366 133q-229 0 -369 -143q-139 -139 -139 -361q0 -231 123 -366q133 -146 374 -146q246 0 387 154q129 141 129 373zM578 963q101 0 145 -121q41 -125 41 -334q0 -235 -39 -356q-47 -148 -143 -148q-102 0 -152 146q-41 119 -41 358 q0 217 49 336q46 119 140 119zM893 1235q0 60 -40.5 100.5t-100.5 40.5t-101 -40.5t-41 -100.5t41 -100.5t101 -40.5t100.5 40.5t40.5 100.5zM553 1235q0 60 -40.5 100.5t-100.5 40.5t-101 -40.5t-41 -100.5t41 -100.5t101 -40.5t100.5 40.5t40.5 100.5z" />
<glyph unicode="&#xf7;" horiz-adv-x="997" d="M956 485v29h-915v-29h915zM377 219q0 -51 36 -87t87 -36t87 36t36 87t-36 87t-87 36t-87 -36t-36 -87zM377 780q0 -51 36 -87t87 -36t87 36t36 87t-36 87t-87 36t-87 -36t-36 -87z" />
<glyph unicode="&#xf8;" horiz-adv-x="1157" d="M401 289l357 356q6 -65 6 -137q0 -235 -39 -356q-47 -148 -143 -148q-143 0 -181 285zM94 -16l119 116q128 -125 356 -125q246 0 387 154q129 141 129 373q0 212 -127 342l121 119l-20 20l-121 -119q-136 127 -358 127q-229 0 -369 -143q-139 -139 -139 -361 q0 -231 121 -364l-119 -119zM756 682l-359 -356q-8 73 -8 182q0 217 49 336q46 119 140 119q75 0 117.5 -71t60.5 -210z" />
<glyph unicode="&#xf9;" horiz-adv-x="1226" d="M1042 967v-940h123v-27h-405q-4 94 -4 104v23q-41 -47 -123 -92q-93 -51 -187 -51q-143 0 -217.5 80t-74.5 239v637h-123v27h415v-639q0 -102 21 -164q29 -96 117 -96q52 0 104 41q46 36 62 59v772h-111v27h403zM653 1081q-1 1 -2.5 4t-5.5 10.5t-8 14.5q-27 44 -37 61 q-1 2 -96 164q-9 15 -23.5 38.5t-19.5 31.5q-3 5 -15 25.5t-16.5 25t-15.5 11.5t-25 8q-31 0 -53.5 -17.5t-28.5 -46.5q-1 -6 -1 -12t0.5 -10.5t3 -10.5t4.5 -10t7.5 -10.5t9 -10.5t12 -12.5l13.5 -13.5t16.5 -16t18.5 -17q17 -16 50.5 -48t50.5 -48q19 -18 49.5 -47.5 t42.5 -42.5q12 -12 22 -21.5t16 -14.5l5 -5q6 0 26 20z" />
<glyph unicode="&#xfa;" horiz-adv-x="1226" d="M1042 27v940h-403v-27h111v-772q-16 -23 -62 -59q-52 -41 -104 -41q-88 0 -117 96q-21 62 -21 164v639h-415v-27h123v-637q0 -159 74.5 -239t217.5 -80q94 0 187 51q82 45 123 92v-23q0 -10 4 -104h405v27h-123zM514 1081q20 -20 27 -20l5 5q6 5 16 14.5t22 21.5 q12 13 42.5 42.5t49.5 47.5q17 16 50 48t50 48q7 6 18.5 17t16.5 16l13.5 13.5t12 12.5t9 10.5t7.5 10.5t4.5 10t3 10.5t0.5 10.5t-1 12q-6 29 -28 46.5t-52 17.5q-15 -1 -26 -8t-15.5 -12t-16 -24.5t-15.5 -25.5q-35 -58 -41 -70q-16 -25 -49.5 -81.5t-49.5 -82.5 q-10 -17 -37 -61q-4 -7 -8 -14.5t-5.5 -10.5t-2.5 -4z" />
<glyph unicode="&#xfb;" horiz-adv-x="1226" d="M1042 967v-940h123v-27h-405q-4 94 -4 104v23q-41 -47 -123 -92q-93 -51 -187 -51q-143 0 -217.5 80t-74.5 239v637h-123v27h415v-639q0 -102 21 -164q29 -96 117 -96q52 0 104 41q46 36 62 59v772h-111v27h403zM879 1085l-197 322h-160l-196 -322l30 -22q17 16 49.5 45 t47.5 43q81 75 82 76q54 50 67 63q12 -12 152 -141q34 -29 94 -86z" />
<glyph unicode="&#xfc;" horiz-adv-x="1226" d="M1042 967v-940h123v-27h-405q-4 94 -4 104v23q-41 -47 -123 -92q-93 -51 -187 -51q-143 0 -217.5 80t-74.5 239v637h-123v27h415v-639q0 -102 21 -164q29 -96 117 -96q52 0 104 41q46 36 62 59v772h-111v27h403zM872 1235q0 60 -40.5 100.5t-100.5 40.5t-100.5 -40.5 t-40.5 -100.5t40.5 -100.5t100.5 -40.5t100.5 40.5t40.5 100.5zM532 1235q0 60 -40.5 100.5t-100.5 40.5t-100.5 -40.5t-40.5 -100.5t40.5 -100.5t100.5 -40.5t100.5 40.5t40.5 100.5z" />
<glyph unicode="&#xfd;" horiz-adv-x="1097" d="M141 -317q0 -54 41.5 -88.5t100.5 -34.5t102 32q78 55 158 215q68 136 121 273q42 105 139 371q121 339 131 368q8 22 23 63.5t20 57.5h110v27h-266v-27h123l-225 -633l-277 633h123v27h-555v-27h111q205 -466 217 -494q62 -145 80 -184q13 -29 36 -84t35 -80 q14 -29 33 -72.5t21 -48.5q23 -55 24 -57q-69 -161 -118 -223q-55 -70 -91 -92q29 29 29 78q0 54 -37 89t-86 35q-52 0 -87.5 -37.5t-35.5 -86.5zM610 1081q20 -20 27 -20l5 5q6 5 16 14.5t22 21.5q13 13 43.5 42.5t48.5 47.5q17 16 50 48t50 48q7 6 18.5 17t16.5 16 l13.5 13.5t12 12.5t9 10.5t7.5 10.5t4.5 10t3 10.5t0.5 10.5t-1 12q-6 29 -28 46.5t-51 17.5q-12 -1 -20.5 -4t-16 -11t-12 -13.5t-12.5 -20t-13 -21.5q-35 -58 -41 -70q-16 -25 -49 -82t-49 -82q-10 -17 -37 -61q-15 -27 -17 -29z" />
<glyph unicode="&#xfe;" horiz-adv-x="1212" d="M467 115v727q22 30 62 54t83 24q96 0 152 -125q55 -123 55 -299q0 -172 -41 -281q-58 -158 -188 -158q-43 0 -75 17.5t-48 40.5zM467 1513h-416v-26h123v-1972h-123v-27h539v27h-123v559q18 -32 80 -62q76 -37 164 -37q66 0 139 27.5t135 83.5q156 142 156 393 q0 253 -152 398q-60 57 -133.5 85.5t-136.5 28.5q-84 0 -151 -31.5t-101 -72.5v626z" />
<glyph unicode="&#xff;" horiz-adv-x="1402" d="M1382 1434v-27h-110l-383 -670v-710h123v-27h-572v27h123v641l-432 739h-111v27h609v-27h-123l371 -631l360 631h-123v27h268zM1083 1677q0 60 -40.5 101t-100.5 41t-100.5 -41t-40.5 -101t40.5 -100.5t100.5 -40.5t100.5 40.5t40.5 100.5zM743 1677q0 60 -40.5 101 t-100.5 41t-100.5 -41t-40.5 -101t40.5 -100.5t100.5 -40.5t100.5 40.5t40.5 100.5z" />
<glyph unicode="&#x152;" horiz-adv-x="2043" d="M1171 0h801v395h-28q-11 -220 -132 -303q-94 -63 -296 -63h-181v680h95q106 0 151 -7q105 -10 153.5 -68t53.5 -161h27v469h-27q-8 -89 -58.5 -139t-150.5 -60q-31 -6 -143 -6h-101v668h133q103 0 172 -8t121 -35q59 -32 93 -94t44 -168h29v334h-837q-63 0 -117 4 q-27 2 -74 2q-347 0 -571 -172q-246 -192 -246 -527q0 -378 231 -573q205 -176 572 -176q33 0 119 4t167 4zM1012 1407v-1382q-278 -26 -410 114q-153 162 -153 580q0 427 165 586q71 67 169.5 88.5t228.5 13.5z" />
<glyph unicode="&#x153;" horiz-adv-x="1622" d="M930 881q-131 110 -338 110q-232 0 -375 -143q-145 -142 -145 -361q0 -233 121 -366q133 -146 374 -146q204 0 338 107q119 -109 273 -109q155 0 262 86q87 70 116 158l-24 14q-20 -32 -70 -65q-59 -39 -141 -39q-127 0 -195 133q-55 102 -59 248q229 12 330 47 q164 56 164 188q0 121 -113 191q-96 55 -225 55q-173 0 -293 -108zM578 963q101 0 145 -121q41 -125 41 -334q0 -231 -43 -356q-50 -148 -143 -148q-103 0 -150 146q-39 121 -39 358q0 217 49 336q46 119 140 119zM1313 780q0 -127 -55.5 -180.5t-192.5 -64.5q3 207 55 325 q46 103 99 103q37 0 65.5 -52t28.5 -131z" />
<glyph unicode="&#x178;" horiz-adv-x="1097" d="M141 -317q0 -54 41.5 -88.5t100.5 -34.5t102 32q78 55 158 215q68 136 121 273q42 105 139 371q121 339 131 368q8 22 23 63.5t20 57.5h110v27h-266v-27h123l-225 -633l-277 633h123v27h-555v-27h111q205 -466 217 -494q62 -145 80 -184q13 -29 36 -84t35 -80 q14 -29 33 -72.5t21 -48.5q23 -55 24 -57q-69 -161 -118 -223q-55 -70 -91 -92q29 29 29 78q0 54 -37 89t-86 35q-52 0 -87.5 -37.5t-35.5 -86.5zM913 1235q0 60 -40.5 100.5t-100.5 40.5t-100.5 -40.5t-40.5 -100.5t40.5 -100.5t100.5 -40.5t100.5 40.5t40.5 100.5z M573 1235q0 60 -40.5 100.5t-100.5 40.5t-100.5 -40.5t-40.5 -100.5t40.5 -100.5t100.5 -40.5t100.5 40.5t40.5 100.5z" />
<glyph unicode="&#x2c6;" horiz-adv-x="593" d="M573 1159l-196 322h-160l-197 -322l31 -22q17 16 49 45t47 43q6 6 36 32.5t46 42.5q54 50 68 64q12 -12 152 -141q34 -29 94 -86z" />
<glyph unicode="&#x2dc;" horiz-adv-x="645" d="M29 1286h32q-5 37 11.5 60.5t52.5 23.5q59 0 158 -43t168 -43q73 0 123.5 49t50.5 117q0 34 -9 61h-32q5 -37 -11 -60.5t-53 -23.5q-63 0 -158 43t-167 43q-74 0 -124.5 -47t-50.5 -118q0 -32 9 -62z" />
<glyph unicode="&#x2000;" horiz-adv-x="964" />
<glyph unicode="&#x2001;" horiz-adv-x="1929" />
<glyph unicode="&#x2002;" horiz-adv-x="964" />
<glyph unicode="&#x2003;" horiz-adv-x="1929" />
<glyph unicode="&#x2004;" horiz-adv-x="643" />
<glyph unicode="&#x2005;" horiz-adv-x="482" />
<glyph unicode="&#x2006;" horiz-adv-x="321" />
<glyph unicode="&#x2007;" horiz-adv-x="321" />
<glyph unicode="&#x2008;" horiz-adv-x="241" />
<glyph unicode="&#x2009;" horiz-adv-x="385" />
<glyph unicode="&#x200a;" horiz-adv-x="107" />
<glyph unicode="&#x2010;" horiz-adv-x="491" d="M61 590v-164h369v164h-369z" />
<glyph unicode="&#x2011;" horiz-adv-x="491" d="M61 590v-164h369v164h-369z" />
<glyph unicode="&#x2012;" horiz-adv-x="491" d="M61 590v-164h369v164h-369z" />
<glyph unicode="&#x2013;" horiz-adv-x="1077" d="M41 471v-27h995v27h-995z" />
<glyph unicode="&#x2014;" horiz-adv-x="1695" d="M41 471v-27h1614v27h-1614z" />
<glyph unicode="&#x2018;" horiz-adv-x="319" d="M166 1513q-67 0 -117 -47q-59 -56 -59 -145q0 -102 76 -178q73 -73 176 -94l4 26q-73 14 -127.5 59.5t-71.5 114.5q45 -49 119 -49q62 0 107.5 45.5t45.5 112.5q0 66 -44.5 110.5t-108.5 44.5z" />
<glyph unicode="&#x2019;" horiz-adv-x="319" d="M154 1513q-64 0 -109 -45t-45 -110q0 -67 46 -112.5t108 -45.5q73 0 118 49q-17 -69 -71 -114.5t-127 -59.5l4 -26q103 21 176 94q76 76 76 178q0 88 -60 145q-50 47 -116 47z" />
<glyph unicode="&#x201a;" horiz-adv-x="411" d="M195 313q-64 0 -109 -45t-45 -110q0 -67 46 -112.5t108 -45.5q73 0 118 49q-17 -69 -71 -114.5t-127 -59.5l4 -27q102 21 176 95q76 76 76 178q0 88 -60 145q-50 47 -116 47z" />
<glyph unicode="&#x201c;" horiz-adv-x="722" d="M569 1513q-66 0 -116 -47q-60 -57 -60 -145q0 -102 76 -178q73 -73 176 -94l4 26q-73 14 -127 59.5t-71 114.5q45 -49 118 -49q62 0 108 45.5t46 112.5q0 65 -45 110t-109 45zM166 1513q-67 0 -117 -47q-59 -56 -59 -145q0 -102 76 -178q73 -73 176 -94l4 26 q-73 14 -127.5 59.5t-71.5 114.5q45 -49 119 -49q62 0 107.5 45.5t45.5 112.5q0 66 -44.5 110.5t-108.5 44.5z" />
<glyph unicode="&#x201d;" horiz-adv-x="722" d="M154 1513q-64 0 -109 -45t-45 -110q0 -67 46 -112.5t108 -45.5q73 0 118 49q-17 -69 -71 -114.5t-127 -59.5l4 -26q103 21 176 94q76 76 76 178q0 88 -60 145q-50 47 -116 47zM557 1513q-64 0 -109 -45t-45 -110q0 -67 46 -112.5t108 -45.5q74 0 119 49 q-17 -69 -71.5 -114.5t-127.5 -59.5l4 -26q103 21 176 94q76 76 76 178q0 89 -59 145q-50 47 -117 47z" />
<glyph unicode="&#x201e;" horiz-adv-x="815" d="M195 313q-64 0 -109 -45t-45 -110q0 -67 46 -112.5t108 -45.5q73 0 118 49q-17 -69 -71 -114.5t-127 -59.5l4 -27q102 21 176 95q76 76 76 178q0 88 -60 145q-50 47 -116 47zM598 313q-64 0 -109 -45t-45 -110q0 -67 46 -112.5t108 -45.5q74 0 119 49 q-17 -69 -71.5 -114.5t-127.5 -59.5l4 -27q102 21 176 95q76 76 76 178q0 89 -59 145q-50 47 -117 47z" />
<glyph unicode="&#x2022;" horiz-adv-x="557" d="M20 709q0 -107 76 -183q75 -75 183 -75q107 0 182 75q76 76 76 183q0 106 -76 182t-182 76q-107 0 -183 -76t-76 -182z" />
<glyph unicode="&#x2026;" horiz-adv-x="1329" d="M324 156q0 66 -45 111.5t-111 45.5t-112 -45.5t-46 -111.5q0 -64 46 -110t112 -46q65 0 110.5 46t45.5 110zM821 156q0 66 -44.5 111.5t-110.5 45.5t-112 -45.5t-46 -111.5q0 -64 46 -110t112 -46q65 0 110 46t45 110zM1319 156q0 66 -45 111.5t-111 45.5t-111.5 -45.5 t-45.5 -111.5q0 -64 46 -110t111 -46t110.5 46t45.5 110z" />
<glyph unicode="&#x202f;" horiz-adv-x="385" />
<glyph unicode="&#x2039;" horiz-adv-x="475" d="M412 164l22 22q-46 57 -92 119q-52 67 -135 182q17 24 63 84q12 16 36.5 49t37.5 50q61 78 90 118l-22 23q-92 -73 -168 -135q-12 -9 -64 -51q-11 -10 -30 -26t-25 -21q-36 -28 -43 -35q-22 -16 -31 -27.5t-8 -28.5q0 -18 8.5 -28.5t30.5 -26.5q7 -7 43 -35 q13 -12 55 -45q25 -22 64 -53q76 -61 168 -135z" />
<glyph unicode="&#x203a;" horiz-adv-x="434" d="M20 186l23 -22q68 54 163.5 131.5t125.5 101.5q15 13 30 25.5t23 19.5t10 9q37 37 0 73q-2 2 -10 9t-23 19.5t-30 25.5q-30 24 -125.5 101.5t-163.5 131.5l-23 -23q37 -52 164 -217q57 -73 64 -84q-6 -10 -15 -22.5t-22.5 -31t-22.5 -30.5q-91 -121 -168 -217z" />
<glyph unicode="&#x205f;" horiz-adv-x="482" />
<glyph unicode="&#x20ac;" horiz-adv-x="1323" d="M373 842h452v28h-450q25 254 114 392q114 178 330 178q174 0 268.5 -96.5t114.5 -307.5h29v322q-182 110 -428 110q-296 0 -504 -155q-211 -157 -270 -443h-129v-28h123v-2q-13 -83 -13 -166h-102v-29h102q12 -308 219 -493t535 -185q106 0 235 29q122 27 220 82v409h-29 q-17 -229 -98 -344q-108 -147 -322 -147q-208 0 -303 162.5t-100 486.5h467v29h-467q0 82 6 168z" />
<glyph unicode="&#x25fc;" horiz-adv-x="962" d="M0 963h963v-963h-963v963z" />
</font>
</defs>
</svg>
